M48
; DRILL file {KiCad 9.0.5} date 2025-10-22T22:21:07-0500
; FORMAT={-:-/ absolute / metric / decimal}
; #@! TF.CreationDate,2025-10-22T22:21:07-05:00
; #@! TF.GenerationSoftware,Kicad,Pcbnew,9.0.5
; #@! TF.FileFunction,Plated,1,2,PTH
FMAT,2
METRIC
; #@! TA.AperFunction,Plated,PTH,ViaDrill
T1C0.305
; #@! TA.AperFunction,Plated,PTH,ComponentDrill
T2C1.500
; #@! TA.AperFunction,Plated,PTH,ComponentDrill
T3C1.850
%
G90
G05
T1
X-27.5Y24.5
X-27.5Y17.5
X-27.5Y10.5
X-21.3Y2.5
X-18.5Y32.5
X-16.0Y32.5
X-13.5Y15.7
X-11.03Y32.55
X-10.8Y27.8
X-7.5Y2.5
X-7.34Y30.64
X-7.29Y10.55
X-2.38Y29.12
X-1.03Y22.64
X1.24Y18.06
X1.36Y13.81
X2.33Y29.11
X2.38Y26.08
X3.6Y16.0
X7.26Y32.44
X7.5Y2.5
X8.5Y27.1
X11.1Y25.1
X13.0Y32.5
X16.4Y14.6
X18.5Y32.5
X21.3Y2.43
X27.5Y24.5
X27.5Y17.5
X27.5Y10.5
T2
X-18.3Y3.5
X-17.85Y11.5
X-15.0Y12.3
X-12.15Y11.5
X-11.7Y3.5
X-3.3Y3.5
X-2.85Y11.5
X0.0Y12.3
X2.85Y11.5
X3.3Y3.5
X11.7Y3.5
X12.15Y11.5
X15.0Y12.3
X17.85Y11.5
X18.3Y3.5
T3
X-4.7Y29.83
X-4.7Y25.0
X-4.7Y20.17
X0.0Y29.83
X0.0Y25.0
X0.0Y20.17
X4.7Y29.83
X4.7Y25.0
X4.7Y20.17
M30
