%TF.GenerationSoftware,KiCad,Pcbnew,9.0.5*%
%TF.CreationDate,2025-10-22T22:20:53-05:00*%
%TF.ProjectId,audio_switch,61756469-6f5f-4737-9769-7463682e6b69,-*%
%TF.SameCoordinates,PX8282a50PY7459280*%
%TF.FileFunction,Legend,Top*%
%TF.FilePolarity,Positive*%
%FSLAX46Y46*%
G04 Gerber Fmt 4.6, Leading zero omitted, Abs format (unit mm)*
G04 Created by KiCad (PCBNEW 9.0.5) date 2025-10-22 22:20:53*
%MOMM*%
%LPD*%
G01*
G04 APERTURE LIST*
%ADD10C,0.200000*%
%ADD11C,0.100000*%
%ADD12C,0.000000*%
G04 APERTURE END LIST*
D10*
X13312530Y27086591D02*
X14264911Y27086591D01*
X13122054Y26515162D02*
X13788720Y28515162D01*
X13788720Y28515162D02*
X14455387Y26515162D01*
X15122054Y28515162D02*
X15122054Y26896115D01*
X15122054Y26896115D02*
X15217292Y26705639D01*
X15217292Y26705639D02*
X15312530Y26610400D01*
X15312530Y26610400D02*
X15503006Y26515162D01*
X15503006Y26515162D02*
X15883959Y26515162D01*
X15883959Y26515162D02*
X16074435Y26610400D01*
X16074435Y26610400D02*
X16169673Y26705639D01*
X16169673Y26705639D02*
X16264911Y26896115D01*
X16264911Y26896115D02*
X16264911Y28515162D01*
X17217292Y26515162D02*
X17217292Y28515162D01*
X17217292Y28515162D02*
X17693482Y28515162D01*
X17693482Y28515162D02*
X17979197Y28419924D01*
X17979197Y28419924D02*
X18169673Y28229448D01*
X18169673Y28229448D02*
X18264911Y28038972D01*
X18264911Y28038972D02*
X18360149Y27658020D01*
X18360149Y27658020D02*
X18360149Y27372305D01*
X18360149Y27372305D02*
X18264911Y26991353D01*
X18264911Y26991353D02*
X18169673Y26800877D01*
X18169673Y26800877D02*
X17979197Y26610400D01*
X17979197Y26610400D02*
X17693482Y26515162D01*
X17693482Y26515162D02*
X17217292Y26515162D01*
X19217292Y26515162D02*
X19217292Y28515162D01*
X20550625Y28515162D02*
X20931578Y28515162D01*
X20931578Y28515162D02*
X21122054Y28419924D01*
X21122054Y28419924D02*
X21312530Y28229448D01*
X21312530Y28229448D02*
X21407768Y27848496D01*
X21407768Y27848496D02*
X21407768Y27181829D01*
X21407768Y27181829D02*
X21312530Y26800877D01*
X21312530Y26800877D02*
X21122054Y26610400D01*
X21122054Y26610400D02*
X20931578Y26515162D01*
X20931578Y26515162D02*
X20550625Y26515162D01*
X20550625Y26515162D02*
X20360149Y26610400D01*
X20360149Y26610400D02*
X20169673Y26800877D01*
X20169673Y26800877D02*
X20074435Y27181829D01*
X20074435Y27181829D02*
X20074435Y27848496D01*
X20074435Y27848496D02*
X20169673Y28229448D01*
X20169673Y28229448D02*
X20360149Y28419924D01*
X20360149Y28419924D02*
X20550625Y28515162D01*
X13312530Y23390512D02*
X13598244Y23295274D01*
X13598244Y23295274D02*
X14074435Y23295274D01*
X14074435Y23295274D02*
X14264911Y23390512D01*
X14264911Y23390512D02*
X14360149Y23485751D01*
X14360149Y23485751D02*
X14455387Y23676227D01*
X14455387Y23676227D02*
X14455387Y23866703D01*
X14455387Y23866703D02*
X14360149Y24057179D01*
X14360149Y24057179D02*
X14264911Y24152417D01*
X14264911Y24152417D02*
X14074435Y24247655D01*
X14074435Y24247655D02*
X13693482Y24342893D01*
X13693482Y24342893D02*
X13503006Y24438132D01*
X13503006Y24438132D02*
X13407768Y24533370D01*
X13407768Y24533370D02*
X13312530Y24723846D01*
X13312530Y24723846D02*
X13312530Y24914322D01*
X13312530Y24914322D02*
X13407768Y25104798D01*
X13407768Y25104798D02*
X13503006Y25200036D01*
X13503006Y25200036D02*
X13693482Y25295274D01*
X13693482Y25295274D02*
X14169673Y25295274D01*
X14169673Y25295274D02*
X14455387Y25200036D01*
X15122054Y25295274D02*
X15598244Y23295274D01*
X15598244Y23295274D02*
X15979197Y24723846D01*
X15979197Y24723846D02*
X16360149Y23295274D01*
X16360149Y23295274D02*
X16836340Y25295274D01*
X17598244Y23295274D02*
X17598244Y25295274D01*
X18264911Y25295274D02*
X19407768Y25295274D01*
X18836339Y23295274D02*
X18836339Y25295274D01*
X21217292Y23485751D02*
X21122054Y23390512D01*
X21122054Y23390512D02*
X20836340Y23295274D01*
X20836340Y23295274D02*
X20645864Y23295274D01*
X20645864Y23295274D02*
X20360149Y23390512D01*
X20360149Y23390512D02*
X20169673Y23580989D01*
X20169673Y23580989D02*
X20074435Y23771465D01*
X20074435Y23771465D02*
X19979197Y24152417D01*
X19979197Y24152417D02*
X19979197Y24438132D01*
X19979197Y24438132D02*
X20074435Y24819084D01*
X20074435Y24819084D02*
X20169673Y25009560D01*
X20169673Y25009560D02*
X20360149Y25200036D01*
X20360149Y25200036D02*
X20645864Y25295274D01*
X20645864Y25295274D02*
X20836340Y25295274D01*
X20836340Y25295274D02*
X21122054Y25200036D01*
X21122054Y25200036D02*
X21217292Y25104798D01*
X22074435Y23295274D02*
X22074435Y25295274D01*
X22074435Y24342893D02*
X23217292Y24342893D01*
X23217292Y23295274D02*
X23217292Y25295274D01*
X14550625Y20075386D02*
X13883958Y21027767D01*
X13407768Y20075386D02*
X13407768Y22075386D01*
X13407768Y22075386D02*
X14169673Y22075386D01*
X14169673Y22075386D02*
X14360149Y21980148D01*
X14360149Y21980148D02*
X14455387Y21884910D01*
X14455387Y21884910D02*
X14550625Y21694434D01*
X14550625Y21694434D02*
X14550625Y21408720D01*
X14550625Y21408720D02*
X14455387Y21218244D01*
X14455387Y21218244D02*
X14360149Y21123005D01*
X14360149Y21123005D02*
X14169673Y21027767D01*
X14169673Y21027767D02*
X13407768Y21027767D01*
X16169673Y20170624D02*
X15979197Y20075386D01*
X15979197Y20075386D02*
X15598244Y20075386D01*
X15598244Y20075386D02*
X15407768Y20170624D01*
X15407768Y20170624D02*
X15312530Y20361101D01*
X15312530Y20361101D02*
X15312530Y21123005D01*
X15312530Y21123005D02*
X15407768Y21313482D01*
X15407768Y21313482D02*
X15598244Y21408720D01*
X15598244Y21408720D02*
X15979197Y21408720D01*
X15979197Y21408720D02*
X16169673Y21313482D01*
X16169673Y21313482D02*
X16264911Y21123005D01*
X16264911Y21123005D02*
X16264911Y20932529D01*
X16264911Y20932529D02*
X15312530Y20742053D01*
X16931578Y21408720D02*
X17407768Y20075386D01*
X17407768Y20075386D02*
X17883959Y21408720D01*
X20169674Y20837291D02*
X21693484Y20837291D01*
X-12987470Y14026591D02*
X-12035089Y14026591D01*
X-13177946Y13455162D02*
X-12511280Y15455162D01*
X-12511280Y15455162D02*
X-11844613Y13455162D01*
X3250625Y13545639D02*
X3155387Y13450400D01*
X3155387Y13450400D02*
X2869673Y13355162D01*
X2869673Y13355162D02*
X2679197Y13355162D01*
X2679197Y13355162D02*
X2393482Y13450400D01*
X2393482Y13450400D02*
X2203006Y13640877D01*
X2203006Y13640877D02*
X2107768Y13831353D01*
X2107768Y13831353D02*
X2012530Y14212305D01*
X2012530Y14212305D02*
X2012530Y14498020D01*
X2012530Y14498020D02*
X2107768Y14878972D01*
X2107768Y14878972D02*
X2203006Y15069448D01*
X2203006Y15069448D02*
X2393482Y15259924D01*
X2393482Y15259924D02*
X2679197Y15355162D01*
X2679197Y15355162D02*
X2869673Y15355162D01*
X2869673Y15355162D02*
X3155387Y15259924D01*
X3155387Y15259924D02*
X3250625Y15164686D01*
X4488720Y15355162D02*
X4869673Y15355162D01*
X4869673Y15355162D02*
X5060149Y15259924D01*
X5060149Y15259924D02*
X5250625Y15069448D01*
X5250625Y15069448D02*
X5345863Y14688496D01*
X5345863Y14688496D02*
X5345863Y14021829D01*
X5345863Y14021829D02*
X5250625Y13640877D01*
X5250625Y13640877D02*
X5060149Y13450400D01*
X5060149Y13450400D02*
X4869673Y13355162D01*
X4869673Y13355162D02*
X4488720Y13355162D01*
X4488720Y13355162D02*
X4298244Y13450400D01*
X4298244Y13450400D02*
X4107768Y13640877D01*
X4107768Y13640877D02*
X4012530Y14021829D01*
X4012530Y14021829D02*
X4012530Y14688496D01*
X4012530Y14688496D02*
X4107768Y15069448D01*
X4107768Y15069448D02*
X4298244Y15259924D01*
X4298244Y15259924D02*
X4488720Y15355162D01*
X6203006Y13355162D02*
X6203006Y15355162D01*
X6203006Y15355162D02*
X6869673Y13926591D01*
X6869673Y13926591D02*
X7536339Y15355162D01*
X7536339Y15355162D02*
X7536339Y13355162D01*
X17774435Y14402781D02*
X18060149Y14307543D01*
X18060149Y14307543D02*
X18155387Y14212305D01*
X18155387Y14212305D02*
X18250625Y14021829D01*
X18250625Y14021829D02*
X18250625Y13736115D01*
X18250625Y13736115D02*
X18155387Y13545639D01*
X18155387Y13545639D02*
X18060149Y13450400D01*
X18060149Y13450400D02*
X17869673Y13355162D01*
X17869673Y13355162D02*
X17107768Y13355162D01*
X17107768Y13355162D02*
X17107768Y15355162D01*
X17107768Y15355162D02*
X17774435Y15355162D01*
X17774435Y15355162D02*
X17964911Y15259924D01*
X17964911Y15259924D02*
X18060149Y15164686D01*
X18060149Y15164686D02*
X18155387Y14974210D01*
X18155387Y14974210D02*
X18155387Y14783734D01*
X18155387Y14783734D02*
X18060149Y14593258D01*
X18060149Y14593258D02*
X17964911Y14498020D01*
X17964911Y14498020D02*
X17774435Y14402781D01*
X17774435Y14402781D02*
X17107768Y14402781D01*
D11*
X-3410402Y14627581D02*
X-3410402Y13913296D01*
X-3410402Y13913296D02*
X-3458021Y13770439D01*
X-3458021Y13770439D02*
X-3553259Y13675200D01*
X-3553259Y13675200D02*
X-3696116Y13627581D01*
X-3696116Y13627581D02*
X-3791354Y13627581D01*
X-2981830Y14532343D02*
X-2934211Y14579962D01*
X-2934211Y14579962D02*
X-2838973Y14627581D01*
X-2838973Y14627581D02*
X-2600878Y14627581D01*
X-2600878Y14627581D02*
X-2505640Y14579962D01*
X-2505640Y14579962D02*
X-2458021Y14532343D01*
X-2458021Y14532343D02*
X-2410402Y14437105D01*
X-2410402Y14437105D02*
X-2410402Y14341867D01*
X-2410402Y14341867D02*
X-2458021Y14199010D01*
X-2458021Y14199010D02*
X-3029449Y13627581D01*
X-3029449Y13627581D02*
X-2410402Y13627581D01*
X7909800Y23666668D02*
X7957419Y23809525D01*
X7957419Y23809525D02*
X7957419Y24047620D01*
X7957419Y24047620D02*
X7909800Y24142858D01*
X7909800Y24142858D02*
X7862180Y24190477D01*
X7862180Y24190477D02*
X7766942Y24238096D01*
X7766942Y24238096D02*
X7671704Y24238096D01*
X7671704Y24238096D02*
X7576466Y24190477D01*
X7576466Y24190477D02*
X7528847Y24142858D01*
X7528847Y24142858D02*
X7481228Y24047620D01*
X7481228Y24047620D02*
X7433609Y23857144D01*
X7433609Y23857144D02*
X7385990Y23761906D01*
X7385990Y23761906D02*
X7338371Y23714287D01*
X7338371Y23714287D02*
X7243133Y23666668D01*
X7243133Y23666668D02*
X7147895Y23666668D01*
X7147895Y23666668D02*
X7052657Y23714287D01*
X7052657Y23714287D02*
X7005038Y23761906D01*
X7005038Y23761906D02*
X6957419Y23857144D01*
X6957419Y23857144D02*
X6957419Y24095239D01*
X6957419Y24095239D02*
X7005038Y24238096D01*
X6957419Y24571430D02*
X7957419Y24809525D01*
X7957419Y24809525D02*
X7243133Y25000001D01*
X7243133Y25000001D02*
X7957419Y25190477D01*
X7957419Y25190477D02*
X6957419Y25428572D01*
X7957419Y26333334D02*
X7957419Y25761906D01*
X7957419Y26047620D02*
X6957419Y26047620D01*
X6957419Y26047620D02*
X7100276Y25952382D01*
X7100276Y25952382D02*
X7195514Y25857144D01*
X7195514Y25857144D02*
X7243133Y25761906D01*
X-7042581Y23857144D02*
X-8042581Y23857144D01*
X-7042581Y24428572D02*
X-7614010Y24000001D01*
X-8042581Y24428572D02*
X-7471153Y23857144D01*
X-7566391Y24857144D02*
X-7566391Y25190477D01*
X-7042581Y25333334D02*
X-7042581Y24857144D01*
X-7042581Y24857144D02*
X-8042581Y24857144D01*
X-8042581Y24857144D02*
X-8042581Y25333334D01*
X-7518772Y25952382D02*
X-7042581Y25952382D01*
X-8042581Y25619049D02*
X-7518772Y25952382D01*
X-7518772Y25952382D02*
X-8042581Y26285715D01*
X-18410402Y14527581D02*
X-18410402Y13813296D01*
X-18410402Y13813296D02*
X-18458021Y13670439D01*
X-18458021Y13670439D02*
X-18553259Y13575200D01*
X-18553259Y13575200D02*
X-18696116Y13527581D01*
X-18696116Y13527581D02*
X-18791354Y13527581D01*
X-17410402Y13527581D02*
X-17981830Y13527581D01*
X-17696116Y13527581D02*
X-17696116Y14527581D01*
X-17696116Y14527581D02*
X-17791354Y14384724D01*
X-17791354Y14384724D02*
X-17886592Y14289486D01*
X-17886592Y14289486D02*
X-17981830Y14241867D01*
X11589598Y14527581D02*
X11589598Y13813296D01*
X11589598Y13813296D02*
X11541979Y13670439D01*
X11541979Y13670439D02*
X11446741Y13575200D01*
X11446741Y13575200D02*
X11303884Y13527581D01*
X11303884Y13527581D02*
X11208646Y13527581D01*
X11970551Y14527581D02*
X12589598Y14527581D01*
X12589598Y14527581D02*
X12256265Y14146629D01*
X12256265Y14146629D02*
X12399122Y14146629D01*
X12399122Y14146629D02*
X12494360Y14099010D01*
X12494360Y14099010D02*
X12541979Y14051391D01*
X12541979Y14051391D02*
X12589598Y13956153D01*
X12589598Y13956153D02*
X12589598Y13718058D01*
X12589598Y13718058D02*
X12541979Y13622820D01*
X12541979Y13622820D02*
X12494360Y13575200D01*
X12494360Y13575200D02*
X12399122Y13527581D01*
X12399122Y13527581D02*
X12113408Y13527581D01*
X12113408Y13527581D02*
X12018170Y13575200D01*
X12018170Y13575200D02*
X11970551Y13622820D01*
%TO.C,J2*%
X-4000000Y13000000D02*
X-1500000Y13000000D01*
X-4000000Y5000000D02*
X-4000000Y10000000D01*
X-4000000Y2000000D02*
X-4000000Y500000D01*
X1500000Y13000000D02*
X4000000Y13000000D01*
X4000000Y5000000D02*
X4000000Y10000000D01*
X4000000Y2000000D02*
X4000000Y500000D01*
%TO.C,SW1*%
X-6500000Y16500000D02*
X6500000Y16500000D01*
X6500000Y33500000D01*
X-6500000Y33500000D01*
X-6500000Y16500000D01*
%TO.C,J1*%
X-19000000Y13000000D02*
X-16500000Y13000000D01*
X-19000000Y5000000D02*
X-19000000Y10000000D01*
X-19000000Y2000000D02*
X-19000000Y500000D01*
X-13500000Y13000000D02*
X-11000000Y13000000D01*
X-11000000Y5000000D02*
X-11000000Y10000000D01*
X-11000000Y2000000D02*
X-11000000Y500000D01*
D12*
%TO.C,G\u002A\u002A\u002A*%
G36*
X-25190998Y23618221D02*
G01*
X-25190998Y23466703D01*
X-25342516Y23466703D01*
X-25494035Y23466703D01*
X-25494035Y23618221D01*
X-25494035Y23769740D01*
X-25342516Y23769740D01*
X-25190998Y23769740D01*
X-25190998Y23618221D01*
G37*
G36*
X-24584924Y23618221D02*
G01*
X-24584924Y23466703D01*
X-24736443Y23466703D01*
X-24887961Y23466703D01*
X-24887961Y23618221D01*
X-24887961Y23769740D01*
X-24736443Y23769740D01*
X-24584924Y23769740D01*
X-24584924Y23618221D01*
G37*
G36*
X-24281887Y19981779D02*
G01*
X-24281887Y19830260D01*
X-24887961Y19830260D01*
X-25494035Y19830260D01*
X-25494035Y19981779D01*
X-25494035Y20133297D01*
X-24887961Y20133297D01*
X-24281887Y20133297D01*
X-24281887Y19981779D01*
G37*
G36*
X-23978850Y25133406D02*
G01*
X-23978850Y24678850D01*
X-24433406Y24678850D01*
X-24887961Y24678850D01*
X-24887961Y25133406D01*
X-24887961Y25587961D01*
X-24433406Y25587961D01*
X-23978850Y25587961D01*
X-23978850Y25133406D01*
G37*
G36*
X-23978850Y23315184D02*
G01*
X-23978850Y23163666D01*
X-24130369Y23163666D01*
X-24281887Y23163666D01*
X-24281887Y23315184D01*
X-24281887Y23466703D01*
X-24130369Y23466703D01*
X-23978850Y23466703D01*
X-23978850Y23315184D01*
G37*
G36*
X-23978850Y18466594D02*
G01*
X-23978850Y18012039D01*
X-24433406Y18012039D01*
X-24887961Y18012039D01*
X-24887961Y18466594D01*
X-24887961Y18921150D01*
X-24433406Y18921150D01*
X-23978850Y18921150D01*
X-23978850Y18466594D01*
G37*
G36*
X-22463666Y20890889D02*
G01*
X-22463666Y20739371D01*
X-22615184Y20739371D01*
X-22766703Y20739371D01*
X-22766703Y20890889D01*
X-22766703Y21042408D01*
X-22615184Y21042408D01*
X-22463666Y21042408D01*
X-22463666Y20890889D01*
G37*
G36*
X-22160629Y24224295D02*
G01*
X-22160629Y24072777D01*
X-22312148Y24072777D01*
X-22463666Y24072777D01*
X-22463666Y24224295D01*
X-22463666Y24375813D01*
X-22312148Y24375813D01*
X-22160629Y24375813D01*
X-22160629Y24224295D01*
G37*
G36*
X-21251518Y22557592D02*
G01*
X-21251518Y22254555D01*
X-21403037Y22254555D01*
X-21554555Y22254555D01*
X-21554555Y22557592D01*
X-21554555Y22860629D01*
X-21403037Y22860629D01*
X-21251518Y22860629D01*
X-21251518Y22557592D01*
G37*
G36*
X-19130260Y24375813D02*
G01*
X-19130260Y24072777D01*
X-19281779Y24072777D01*
X-19433297Y24072777D01*
X-19433297Y24375813D01*
X-19433297Y24678850D01*
X-19281779Y24678850D01*
X-19130260Y24678850D01*
X-19130260Y24375813D01*
G37*
G36*
X-18524187Y19375705D02*
G01*
X-18524187Y19224187D01*
X-18675705Y19224187D01*
X-18827223Y19224187D01*
X-18827223Y19375705D01*
X-18827223Y19527223D01*
X-18675705Y19527223D01*
X-18524187Y19527223D01*
X-18524187Y19375705D01*
G37*
G36*
X-17615076Y17709002D02*
G01*
X-17615076Y17405965D01*
X-17766594Y17405965D01*
X-17918113Y17405965D01*
X-17918113Y17709002D01*
X-17918113Y18012039D01*
X-17766594Y18012039D01*
X-17615076Y18012039D01*
X-17615076Y17709002D01*
G37*
G36*
X-17312039Y25133406D02*
G01*
X-17312039Y24678850D01*
X-17766594Y24678850D01*
X-18221150Y24678850D01*
X-18221150Y25133406D01*
X-18221150Y25587961D01*
X-17766594Y25587961D01*
X-17312039Y25587961D01*
X-17312039Y25133406D01*
G37*
G36*
X-16705965Y17557484D02*
G01*
X-16705965Y17405965D01*
X-16857484Y17405965D01*
X-17009002Y17405965D01*
X-17009002Y17557484D01*
X-17009002Y17709002D01*
X-16857484Y17709002D01*
X-16705965Y17709002D01*
X-16705965Y17557484D01*
G37*
G36*
X-22463666Y17860521D02*
G01*
X-22463666Y17709002D01*
X-22615184Y17709002D01*
X-22766703Y17709002D01*
X-22766703Y17557484D01*
X-22766703Y17405965D01*
X-22918221Y17405965D01*
X-23069740Y17405965D01*
X-23069740Y17557484D01*
X-23069740Y17709002D01*
X-22918221Y17709002D01*
X-22766703Y17709002D01*
X-22766703Y17860521D01*
X-22766703Y18012039D01*
X-22615184Y18012039D01*
X-22463666Y18012039D01*
X-22463666Y17860521D01*
G37*
G36*
X-16705965Y22103037D02*
G01*
X-16705965Y21648482D01*
X-16857484Y21648482D01*
X-17009002Y21648482D01*
X-17009002Y21800000D01*
X-17009002Y21951518D01*
X-17160521Y21951518D01*
X-17312039Y21951518D01*
X-17312039Y22103037D01*
X-17312039Y22254555D01*
X-17160521Y22254555D01*
X-17009002Y22254555D01*
X-17009002Y22406074D01*
X-17009002Y22557592D01*
X-16857484Y22557592D01*
X-16705965Y22557592D01*
X-16705965Y22103037D01*
G37*
G36*
X-23372777Y25133406D02*
G01*
X-23372777Y24072777D01*
X-24433406Y24072777D01*
X-25494035Y24072777D01*
X-25494035Y24403362D01*
X-25163449Y24403362D01*
X-24433406Y24403362D01*
X-23703362Y24403362D01*
X-23703362Y25133406D01*
X-23703362Y25863449D01*
X-24433406Y25863449D01*
X-25163449Y25863449D01*
X-25163449Y25133406D01*
X-25163449Y24403362D01*
X-25494035Y24403362D01*
X-25494035Y25133406D01*
X-25494035Y26194035D01*
X-24433406Y26194035D01*
X-23372777Y26194035D01*
X-23372777Y25133406D01*
G37*
G36*
X-23372777Y18466594D02*
G01*
X-23372777Y17405965D01*
X-24433406Y17405965D01*
X-25494035Y17405965D01*
X-25494035Y17736551D01*
X-25163449Y17736551D01*
X-24433406Y17736551D01*
X-23703362Y17736551D01*
X-23703362Y18466594D01*
X-23703362Y19196638D01*
X-24433406Y19196638D01*
X-25163449Y19196638D01*
X-25163449Y18466594D01*
X-25163449Y17736551D01*
X-25494035Y17736551D01*
X-25494035Y18466594D01*
X-25494035Y19527223D01*
X-24433406Y19527223D01*
X-23372777Y19527223D01*
X-23372777Y18466594D01*
G37*
G36*
X-16705965Y25133406D02*
G01*
X-16705965Y24072777D01*
X-17766594Y24072777D01*
X-18827223Y24072777D01*
X-18827223Y24403362D01*
X-18496638Y24403362D01*
X-17766594Y24403362D01*
X-17036551Y24403362D01*
X-17036551Y25133406D01*
X-17036551Y25863449D01*
X-17766594Y25863449D01*
X-18496638Y25863449D01*
X-18496638Y25133406D01*
X-18496638Y24403362D01*
X-18827223Y24403362D01*
X-18827223Y25133406D01*
X-18827223Y26194035D01*
X-17766594Y26194035D01*
X-16705965Y26194035D01*
X-16705965Y25133406D01*
G37*
G36*
X-18524187Y21193926D02*
G01*
X-18524187Y21042408D01*
X-18372668Y21042408D01*
X-18221150Y21042408D01*
X-18221150Y20890889D01*
X-18221150Y20739371D01*
X-17918113Y20739371D01*
X-17615076Y20739371D01*
X-17615076Y20890889D01*
X-17615076Y21042408D01*
X-17312039Y21042408D01*
X-17009002Y21042408D01*
X-17009002Y21193926D01*
X-17009002Y21345445D01*
X-16857484Y21345445D01*
X-16705965Y21345445D01*
X-16705965Y20890889D01*
X-16705965Y20436334D01*
X-16857484Y20436334D01*
X-17009002Y20436334D01*
X-17009002Y20587853D01*
X-17009002Y20739371D01*
X-17312039Y20739371D01*
X-17615076Y20739371D01*
X-17615076Y20587853D01*
X-17615076Y20436334D01*
X-17918113Y20436334D01*
X-18221150Y20436334D01*
X-18221150Y20587853D01*
X-18221150Y20739371D01*
X-18524187Y20739371D01*
X-18827223Y20739371D01*
X-18827223Y21042408D01*
X-18827223Y21345445D01*
X-18675705Y21345445D01*
X-18524187Y21345445D01*
X-18524187Y21193926D01*
G37*
G36*
X-22766703Y26042516D02*
G01*
X-22766703Y25890998D01*
X-22615184Y25890998D01*
X-22463666Y25890998D01*
X-22463666Y26042516D01*
X-22463666Y26194035D01*
X-22160629Y26194035D01*
X-21857592Y26194035D01*
X-21857592Y26042516D01*
X-21857592Y25890998D01*
X-21403037Y25890998D01*
X-20948482Y25890998D01*
X-20948482Y26042516D01*
X-20948482Y26194035D01*
X-20645445Y26194035D01*
X-20342408Y26194035D01*
X-20342408Y25890998D01*
X-20342408Y25587961D01*
X-20190889Y25587961D01*
X-20039371Y25587961D01*
X-20039371Y25890998D01*
X-20039371Y26194035D01*
X-19887853Y26194035D01*
X-19736334Y26194035D01*
X-19736334Y25890998D01*
X-19736334Y25587961D01*
X-19584816Y25587961D01*
X-19433297Y25587961D01*
X-19433297Y25739479D01*
X-19433297Y25890998D01*
X-19281779Y25890998D01*
X-19130260Y25890998D01*
X-19130260Y25587961D01*
X-19130260Y25284924D01*
X-19584816Y25284924D01*
X-20039371Y25284924D01*
X-20039371Y25133406D01*
X-20039371Y24981887D01*
X-20190889Y24981887D01*
X-20342408Y24981887D01*
X-20342408Y25133406D01*
X-20342408Y25284924D01*
X-20645445Y25284924D01*
X-20948482Y25284924D01*
X-20948482Y25133406D01*
X-20948482Y24981887D01*
X-20796963Y24981887D01*
X-20645445Y24981887D01*
X-20645445Y24678850D01*
X-20645445Y24375813D01*
X-20796963Y24375813D01*
X-20948482Y24375813D01*
X-20948482Y24527332D01*
X-20948482Y24678850D01*
X-21251518Y24678850D01*
X-21554555Y24678850D01*
X-21554555Y24224295D01*
X-21554555Y23769740D01*
X-21403037Y23769740D01*
X-21251518Y23769740D01*
X-21251518Y24072777D01*
X-21251518Y24375813D01*
X-21100000Y24375813D01*
X-20948482Y24375813D01*
X-20948482Y24224295D01*
X-20948482Y24072777D01*
X-20796963Y24072777D01*
X-20645445Y24072777D01*
X-20645445Y24224295D01*
X-20645445Y24375813D01*
X-20493926Y24375813D01*
X-20342408Y24375813D01*
X-20342408Y24527332D01*
X-20342408Y24678850D01*
X-20190889Y24678850D01*
X-20039371Y24678850D01*
X-20039371Y24830369D01*
X-20039371Y24981887D01*
X-19887853Y24981887D01*
X-19736334Y24981887D01*
X-19736334Y24375813D01*
X-19736334Y23769740D01*
X-19887853Y23769740D01*
X-20039371Y23769740D01*
X-20039371Y23618221D01*
X-20039371Y23466703D01*
X-20342408Y23466703D01*
X-20645445Y23466703D01*
X-20645445Y23618221D01*
X-20645445Y23769740D01*
X-20342408Y23769740D01*
X-20190889Y23769740D01*
X-20039371Y23769740D01*
X-20039371Y24072777D01*
X-20039371Y24375813D01*
X-20190889Y24375813D01*
X-20342408Y24375813D01*
X-20342408Y24072777D01*
X-20342408Y23769740D01*
X-20645445Y23769740D01*
X-20796963Y23769740D01*
X-20948482Y23769740D01*
X-20948482Y23466703D01*
X-20948482Y23163666D01*
X-20342408Y23163666D01*
X-19736334Y23163666D01*
X-19736334Y23315184D01*
X-19736334Y23466703D01*
X-19584816Y23466703D01*
X-19433297Y23466703D01*
X-19433297Y23618221D01*
X-19433297Y23769740D01*
X-19281779Y23769740D01*
X-19130260Y23769740D01*
X-19130260Y23466703D01*
X-19130260Y23163666D01*
X-19281779Y23163666D01*
X-19433297Y23163666D01*
X-19433297Y22860629D01*
X-19433297Y22557592D01*
X-19281779Y22557592D01*
X-19130260Y22557592D01*
X-19130260Y22709111D01*
X-19130260Y22860629D01*
X-18827223Y22860629D01*
X-18524187Y22860629D01*
X-18524187Y23012148D01*
X-18524187Y23163666D01*
X-18675705Y23163666D01*
X-18827223Y23163666D01*
X-18827223Y23315184D01*
X-18827223Y23466703D01*
X-18675705Y23466703D01*
X-18524187Y23466703D01*
X-18524187Y23618221D01*
X-18524187Y23769740D01*
X-18372668Y23769740D01*
X-18221150Y23769740D01*
X-18221150Y23466703D01*
X-18221150Y23163666D01*
X-17766594Y23163666D01*
X-17312039Y23163666D01*
X-17312039Y23315184D01*
X-17312039Y23466703D01*
X-17463558Y23466703D01*
X-17615076Y23466703D01*
X-17615076Y23618221D01*
X-17615076Y23769740D01*
X-17463558Y23769740D01*
X-17312039Y23769740D01*
X-17312039Y23618221D01*
X-17312039Y23466703D01*
X-17160521Y23466703D01*
X-17009002Y23466703D01*
X-17009002Y23618221D01*
X-17009002Y23769740D01*
X-16857484Y23769740D01*
X-16705965Y23769740D01*
X-16705965Y23315184D01*
X-16705965Y22860629D01*
X-16857484Y22860629D01*
X-17009002Y22860629D01*
X-17009002Y23012148D01*
X-17009002Y23163666D01*
X-17160521Y23163666D01*
X-17312039Y23163666D01*
X-17312039Y23012148D01*
X-17312039Y22860629D01*
X-17463558Y22860629D01*
X-17615076Y22860629D01*
X-17615076Y22709111D01*
X-17615076Y22557592D01*
X-17766594Y22557592D01*
X-17918113Y22557592D01*
X-17918113Y22709111D01*
X-17918113Y22860629D01*
X-18069631Y22860629D01*
X-18221150Y22860629D01*
X-18221150Y22709111D01*
X-18221150Y22557592D01*
X-18372668Y22557592D01*
X-18524187Y22557592D01*
X-18524187Y22406074D01*
X-18524187Y22254555D01*
X-18372668Y22254555D01*
X-18221150Y22254555D01*
X-18221150Y22103037D01*
X-18221150Y21951518D01*
X-18372668Y21951518D01*
X-18524187Y21951518D01*
X-18524187Y21800000D01*
X-18524187Y21648482D01*
X-18675705Y21648482D01*
X-18827223Y21648482D01*
X-18827223Y22103037D01*
X-18827223Y22557592D01*
X-18978742Y22557592D01*
X-19130260Y22557592D01*
X-19130260Y22254555D01*
X-19130260Y21951518D01*
X-19281779Y21951518D01*
X-19433297Y21951518D01*
X-19433297Y21800000D01*
X-19433297Y21648482D01*
X-19281779Y21648482D01*
X-19130260Y21648482D01*
X-19130260Y21193926D01*
X-19130260Y20739371D01*
X-19281779Y20739371D01*
X-19433297Y20739371D01*
X-19433297Y20436334D01*
X-19433297Y20133297D01*
X-19281779Y20133297D01*
X-19130260Y20133297D01*
X-19130260Y20284816D01*
X-19130260Y20436334D01*
X-18827223Y20436334D01*
X-18524187Y20436334D01*
X-18524187Y20284816D01*
X-18524187Y20133297D01*
X-18069631Y20133297D01*
X-17615076Y20133297D01*
X-17615076Y19981779D01*
X-17615076Y19830260D01*
X-17463558Y19830260D01*
X-17312039Y19830260D01*
X-17312039Y19981779D01*
X-17312039Y20133297D01*
X-17160521Y20133297D01*
X-17009002Y20133297D01*
X-17009002Y19981779D01*
X-17009002Y19830260D01*
X-17160521Y19830260D01*
X-17312039Y19830260D01*
X-17312039Y19678742D01*
X-17312039Y19527223D01*
X-17615076Y19527223D01*
X-17918113Y19527223D01*
X-17918113Y19224187D01*
X-17918113Y18921150D01*
X-17766594Y18921150D01*
X-17615076Y18921150D01*
X-17615076Y18769631D01*
X-17615076Y18618113D01*
X-17463558Y18618113D01*
X-17312039Y18618113D01*
X-17312039Y18769631D01*
X-17312039Y18921150D01*
X-17160521Y18921150D01*
X-17009002Y18921150D01*
X-17009002Y19375705D01*
X-17009002Y19830260D01*
X-16857484Y19830260D01*
X-16705965Y19830260D01*
X-16705965Y18921150D01*
X-16705965Y18012039D01*
X-17009002Y18012039D01*
X-17312039Y18012039D01*
X-17312039Y18163558D01*
X-17312039Y18315076D01*
X-17160521Y18315076D01*
X-17009002Y18315076D01*
X-17009002Y18466594D01*
X-17009002Y18618113D01*
X-17160521Y18618113D01*
X-17312039Y18618113D01*
X-17312039Y18466594D01*
X-17312039Y18315076D01*
X-17615076Y18315076D01*
X-17918113Y18315076D01*
X-17918113Y18163558D01*
X-17918113Y18012039D01*
X-18069631Y18012039D01*
X-18221150Y18012039D01*
X-18221150Y17860521D01*
X-18221150Y17709002D01*
X-18524187Y17709002D01*
X-18827223Y17709002D01*
X-18827223Y17557484D01*
X-18827223Y17405965D01*
X-19281779Y17405965D01*
X-19736334Y17405965D01*
X-19736334Y17557484D01*
X-19736334Y17709002D01*
X-19887853Y17709002D01*
X-20039371Y17709002D01*
X-20039371Y17557484D01*
X-20039371Y17405965D01*
X-20645445Y17405965D01*
X-21251518Y17405965D01*
X-21251518Y17557484D01*
X-21251518Y17709002D01*
X-21706074Y17709002D01*
X-22160629Y17709002D01*
X-22160629Y17860521D01*
X-20948482Y17860521D01*
X-20948482Y17709002D01*
X-20493926Y17709002D01*
X-20039371Y17709002D01*
X-20039371Y17860521D01*
X-20039371Y18012039D01*
X-19887853Y18012039D01*
X-19736334Y18012039D01*
X-19736334Y17860521D01*
X-19736334Y17709002D01*
X-19584816Y17709002D01*
X-19433297Y17709002D01*
X-19433297Y17860521D01*
X-19433297Y18012039D01*
X-19281779Y18012039D01*
X-19130260Y18012039D01*
X-18827223Y18012039D01*
X-18524187Y18012039D01*
X-18221150Y18012039D01*
X-18221150Y18315076D01*
X-18221150Y18466594D01*
X-18221150Y18618113D01*
X-18524187Y18618113D01*
X-18827223Y18618113D01*
X-18827223Y18315076D01*
X-18827223Y18012039D01*
X-19130260Y18012039D01*
X-19130260Y18163558D01*
X-19130260Y18315076D01*
X-19281779Y18315076D01*
X-19433297Y18315076D01*
X-19433297Y18466594D01*
X-19433297Y18618113D01*
X-19584816Y18618113D01*
X-19736334Y18618113D01*
X-19736334Y18466594D01*
X-19736334Y18315076D01*
X-20190889Y18315076D01*
X-20645445Y18315076D01*
X-20645445Y18163558D01*
X-20645445Y18012039D01*
X-20796963Y18012039D01*
X-20948482Y18012039D01*
X-20948482Y17860521D01*
X-22160629Y17860521D01*
X-22160629Y18012039D01*
X-22160629Y18315076D01*
X-21706074Y18315076D01*
X-21251518Y18315076D01*
X-21251518Y18466594D01*
X-21251518Y18618113D01*
X-20948482Y18618113D01*
X-20796963Y18618113D01*
X-20645445Y18618113D01*
X-20039371Y18618113D01*
X-19887853Y18618113D01*
X-19736334Y18618113D01*
X-19736334Y18769631D01*
X-19736334Y18921150D01*
X-19130260Y18921150D01*
X-18675705Y18921150D01*
X-18221150Y18921150D01*
X-18221150Y19375705D01*
X-18221150Y19830260D01*
X-18675705Y19830260D01*
X-19130260Y19830260D01*
X-19130260Y19375705D01*
X-19130260Y18921150D01*
X-19736334Y18921150D01*
X-19887853Y18921150D01*
X-20039371Y18921150D01*
X-20039371Y18769631D01*
X-20039371Y18618113D01*
X-20645445Y18618113D01*
X-20645445Y18769631D01*
X-20645445Y18921150D01*
X-20342408Y18921150D01*
X-20190889Y18921150D01*
X-20039371Y18921150D01*
X-20039371Y19072668D01*
X-20039371Y19224187D01*
X-19736334Y19224187D01*
X-19584816Y19224187D01*
X-19433297Y19224187D01*
X-19433297Y19375705D01*
X-19433297Y19527223D01*
X-19584816Y19527223D01*
X-19736334Y19527223D01*
X-19736334Y19375705D01*
X-19736334Y19224187D01*
X-20039371Y19224187D01*
X-20190889Y19224187D01*
X-20342408Y19224187D01*
X-20342408Y19072668D01*
X-20342408Y18921150D01*
X-20645445Y18921150D01*
X-20645445Y19072668D01*
X-20645445Y19224187D01*
X-20796963Y19224187D01*
X-20948482Y19224187D01*
X-20948482Y18921150D01*
X-20948482Y18618113D01*
X-21251518Y18618113D01*
X-21403037Y18618113D01*
X-21554555Y18618113D01*
X-21554555Y18769631D01*
X-21554555Y18921150D01*
X-21403037Y18921150D01*
X-21251518Y18921150D01*
X-21251518Y19072668D01*
X-21251518Y19224187D01*
X-21403037Y19224187D01*
X-21554555Y19224187D01*
X-21554555Y19375705D01*
X-21554555Y19527223D01*
X-21706074Y19527223D01*
X-21857592Y19527223D01*
X-21857592Y19830260D01*
X-21857592Y20133297D01*
X-22160629Y20133297D01*
X-22463666Y20133297D01*
X-22463666Y19981779D01*
X-22463666Y19830260D01*
X-22312148Y19830260D01*
X-22160629Y19830260D01*
X-22160629Y19375705D01*
X-22160629Y18921150D01*
X-22009111Y18921150D01*
X-21857592Y18921150D01*
X-21857592Y18769631D01*
X-21857592Y18618113D01*
X-22160629Y18618113D01*
X-22463666Y18618113D01*
X-22463666Y18466594D01*
X-22463666Y18315076D01*
X-22615184Y18315076D01*
X-22766703Y18315076D01*
X-22766703Y18163558D01*
X-22766703Y18012039D01*
X-22918221Y18012039D01*
X-23069740Y18012039D01*
X-23069740Y18163558D01*
X-23069740Y18315076D01*
X-22918221Y18315076D01*
X-22766703Y18315076D01*
X-22766703Y18769631D01*
X-22766703Y19224187D01*
X-22918221Y19224187D01*
X-23069740Y19224187D01*
X-23069740Y19527223D01*
X-23069740Y19830260D01*
X-23524295Y19830260D01*
X-23978850Y19830260D01*
X-23978850Y19981779D01*
X-23978850Y20133297D01*
X-23675813Y20133297D01*
X-23372777Y20133297D01*
X-23372777Y20284816D01*
X-23372777Y20436334D01*
X-23524295Y20436334D01*
X-23675813Y20436334D01*
X-23675813Y20587853D01*
X-23675813Y20739371D01*
X-23524295Y20739371D01*
X-23372777Y20739371D01*
X-23372777Y20890889D01*
X-23372777Y21042408D01*
X-23524295Y21042408D01*
X-23675813Y21042408D01*
X-23675813Y20890889D01*
X-23675813Y20739371D01*
X-23827332Y20739371D01*
X-23978850Y20739371D01*
X-23978850Y20587853D01*
X-23978850Y20436334D01*
X-24281887Y20436334D01*
X-24584924Y20436334D01*
X-24584924Y20587853D01*
X-24584924Y20739371D01*
X-24281887Y20739371D01*
X-24130369Y20739371D01*
X-23978850Y20739371D01*
X-23978850Y20890889D01*
X-23978850Y21042408D01*
X-24130369Y21042408D01*
X-24281887Y21042408D01*
X-24281887Y20890889D01*
X-24281887Y20739371D01*
X-24584924Y20739371D01*
X-24736443Y20739371D01*
X-24887961Y20739371D01*
X-24887961Y20587853D01*
X-24887961Y20436334D01*
X-25190998Y20436334D01*
X-25494035Y20436334D01*
X-25494035Y20587853D01*
X-25494035Y20739371D01*
X-25342516Y20739371D01*
X-25190998Y20739371D01*
X-25190998Y20890889D01*
X-25190998Y21042408D01*
X-24736443Y21042408D01*
X-24281887Y21042408D01*
X-24281887Y21193926D01*
X-24281887Y21345445D01*
X-24433406Y21345445D01*
X-24584924Y21345445D01*
X-24584924Y21496963D01*
X-24584924Y21648482D01*
X-25039479Y21648482D01*
X-25494035Y21648482D01*
X-25494035Y21800000D01*
X-23978850Y21800000D01*
X-23978850Y21648482D01*
X-23827332Y21648482D01*
X-23675813Y21648482D01*
X-23675813Y21496963D01*
X-23675813Y21345445D01*
X-23372777Y21345445D01*
X-23069740Y21345445D01*
X-23069740Y20739371D01*
X-23069740Y20133297D01*
X-22766703Y20133297D01*
X-22463666Y20133297D01*
X-22463666Y20284816D01*
X-22463666Y20436334D01*
X-21857592Y20436334D01*
X-21251518Y20436334D01*
X-21251518Y20133297D01*
X-21251518Y19830260D01*
X-21403037Y19830260D01*
X-21554555Y19830260D01*
X-21554555Y19678742D01*
X-21554555Y19527223D01*
X-21251518Y19527223D01*
X-20948482Y19527223D01*
X-20948482Y19678742D01*
X-20342408Y19678742D01*
X-20342408Y19527223D01*
X-20039371Y19527223D01*
X-19736334Y19527223D01*
X-19736334Y19830260D01*
X-19736334Y20133297D01*
X-19887853Y20133297D01*
X-20039371Y20133297D01*
X-20039371Y19981779D01*
X-20039371Y19830260D01*
X-20190889Y19830260D01*
X-20342408Y19830260D01*
X-20342408Y19678742D01*
X-20948482Y19678742D01*
X-20948482Y19830260D01*
X-20796963Y19830260D01*
X-20645445Y19830260D01*
X-20645445Y20133297D01*
X-20645445Y20436334D01*
X-20796963Y20436334D01*
X-20948482Y20436334D01*
X-20948482Y20587853D01*
X-20948482Y20739371D01*
X-21251518Y20739371D01*
X-21554555Y20739371D01*
X-21554555Y20890889D01*
X-20342408Y20890889D01*
X-20342408Y20739371D01*
X-20190889Y20739371D01*
X-20039371Y20739371D01*
X-20039371Y20587853D01*
X-20039371Y20436334D01*
X-20190889Y20436334D01*
X-20342408Y20436334D01*
X-20342408Y20284816D01*
X-20342408Y20133297D01*
X-20190889Y20133297D01*
X-20039371Y20133297D01*
X-20039371Y20284816D01*
X-20039371Y20436334D01*
X-19887853Y20436334D01*
X-19736334Y20436334D01*
X-19736334Y20739371D01*
X-19736334Y21042408D01*
X-19584816Y21042408D01*
X-19433297Y21042408D01*
X-19433297Y21193926D01*
X-19433297Y21345445D01*
X-19736334Y21345445D01*
X-20039371Y21345445D01*
X-20039371Y21193926D01*
X-20039371Y21042408D01*
X-20190889Y21042408D01*
X-20342408Y21042408D01*
X-20342408Y20890889D01*
X-21554555Y20890889D01*
X-21554555Y21042408D01*
X-21706074Y21042408D01*
X-21857592Y21042408D01*
X-21857592Y20890889D01*
X-21857592Y20739371D01*
X-22009111Y20739371D01*
X-22160629Y20739371D01*
X-22160629Y20890889D01*
X-22160629Y21042408D01*
X-22312148Y21042408D01*
X-22463666Y21042408D01*
X-22463666Y21193926D01*
X-22463666Y21345445D01*
X-22312148Y21345445D01*
X-22160629Y21345445D01*
X-21857592Y21345445D01*
X-21554555Y21345445D01*
X-21251518Y21345445D01*
X-21251518Y21496963D01*
X-20948482Y21496963D01*
X-20948482Y21345445D01*
X-20796963Y21345445D01*
X-20645445Y21345445D01*
X-20645445Y21496963D01*
X-20645445Y21648482D01*
X-20493926Y21648482D01*
X-20342408Y21648482D01*
X-20342408Y21496963D01*
X-20342408Y21345445D01*
X-20190889Y21345445D01*
X-20039371Y21345445D01*
X-20039371Y21800000D01*
X-20039371Y22254555D01*
X-19887853Y22254555D01*
X-19736334Y22254555D01*
X-19736334Y22557592D01*
X-19736334Y22860629D01*
X-20039371Y22860629D01*
X-20342408Y22860629D01*
X-20342408Y22709111D01*
X-20342408Y22557592D01*
X-20190889Y22557592D01*
X-20039371Y22557592D01*
X-20039371Y22406074D01*
X-20039371Y22254555D01*
X-20190889Y22254555D01*
X-20342408Y22254555D01*
X-20342408Y22103037D01*
X-20342408Y21951518D01*
X-20493926Y21951518D01*
X-20645445Y21951518D01*
X-20645445Y21800000D01*
X-20645445Y21648482D01*
X-20796963Y21648482D01*
X-20948482Y21648482D01*
X-20948482Y21496963D01*
X-21251518Y21496963D01*
X-21251518Y21648482D01*
X-21554555Y21648482D01*
X-21857592Y21648482D01*
X-21857592Y21496963D01*
X-21857592Y21345445D01*
X-22160629Y21345445D01*
X-22160629Y21496963D01*
X-22160629Y21648482D01*
X-22009111Y21648482D01*
X-21857592Y21648482D01*
X-21857592Y21800000D01*
X-21857592Y21951518D01*
X-22160629Y21951518D01*
X-22463666Y21951518D01*
X-22463666Y22103037D01*
X-22463666Y22254555D01*
X-22312148Y22254555D01*
X-22160629Y22254555D01*
X-22160629Y22406074D01*
X-22160629Y22557592D01*
X-21857592Y22557592D01*
X-21857592Y22254555D01*
X-21706074Y22254555D01*
X-21554555Y22254555D01*
X-21554555Y22103037D01*
X-21554555Y21951518D01*
X-21251518Y21951518D01*
X-20948482Y21951518D01*
X-20948482Y22103037D01*
X-20948482Y22254555D01*
X-20796963Y22254555D01*
X-20645445Y22254555D01*
X-20645445Y22406074D01*
X-20645445Y22557592D01*
X-20796963Y22557592D01*
X-20948482Y22557592D01*
X-20948482Y22860629D01*
X-20948482Y23163666D01*
X-21251518Y23163666D01*
X-21554555Y23163666D01*
X-21554555Y23012148D01*
X-21554555Y22860629D01*
X-21706074Y22860629D01*
X-21857592Y22860629D01*
X-21857592Y22557592D01*
X-22160629Y22557592D01*
X-22463666Y22557592D01*
X-22766703Y22557592D01*
X-22766703Y21951518D01*
X-22766703Y21345445D01*
X-22918221Y21345445D01*
X-23069740Y21345445D01*
X-23069740Y21496963D01*
X-23069740Y21648482D01*
X-23372777Y21648482D01*
X-23675813Y21648482D01*
X-23675813Y21800000D01*
X-23675813Y21951518D01*
X-23524295Y21951518D01*
X-23372777Y21951518D01*
X-23372777Y22103037D01*
X-23372777Y22254555D01*
X-23524295Y22254555D01*
X-23675813Y22254555D01*
X-23675813Y22103037D01*
X-23675813Y21951518D01*
X-23827332Y21951518D01*
X-23978850Y21951518D01*
X-23978850Y21800000D01*
X-25494035Y21800000D01*
X-25494035Y21951518D01*
X-25342516Y21951518D01*
X-25190998Y21951518D01*
X-25190998Y22103037D01*
X-25190998Y22254555D01*
X-25342516Y22254555D01*
X-25494035Y22254555D01*
X-25494035Y22709111D01*
X-25494035Y23163666D01*
X-25039479Y23163666D01*
X-24584924Y23163666D01*
X-24584924Y23012148D01*
X-24584924Y22860629D01*
X-24736443Y22860629D01*
X-24887961Y22860629D01*
X-24887961Y22406074D01*
X-24887961Y21951518D01*
X-24584924Y21951518D01*
X-24281887Y21951518D01*
X-24281887Y22103037D01*
X-24281887Y22254555D01*
X-24433406Y22254555D01*
X-24584924Y22254555D01*
X-24584924Y22406074D01*
X-24584924Y22557592D01*
X-24433406Y22557592D01*
X-24281887Y22557592D01*
X-24281887Y22406074D01*
X-24281887Y22254555D01*
X-23978850Y22254555D01*
X-23675813Y22254555D01*
X-23675813Y22406074D01*
X-23675813Y22557592D01*
X-23827332Y22557592D01*
X-23978850Y22557592D01*
X-23978850Y22860629D01*
X-23978850Y23163666D01*
X-23675813Y23163666D01*
X-23372777Y23163666D01*
X-23372777Y23012148D01*
X-23372777Y22860629D01*
X-23524295Y22860629D01*
X-23675813Y22860629D01*
X-23675813Y22709111D01*
X-23675813Y22557592D01*
X-23372777Y22557592D01*
X-23069740Y22557592D01*
X-23069740Y22709111D01*
X-23069740Y22860629D01*
X-22918221Y22860629D01*
X-22766703Y22860629D01*
X-22463666Y22860629D01*
X-22312148Y22860629D01*
X-22160629Y22860629D01*
X-22160629Y23012148D01*
X-22160629Y23163666D01*
X-22312148Y23163666D01*
X-22463666Y23163666D01*
X-22463666Y23012148D01*
X-22463666Y22860629D01*
X-22766703Y22860629D01*
X-22766703Y23012148D01*
X-22766703Y23163666D01*
X-22918221Y23163666D01*
X-23069740Y23163666D01*
X-23069740Y23315184D01*
X-23069740Y23466703D01*
X-23372777Y23466703D01*
X-23675813Y23466703D01*
X-23675813Y23618221D01*
X-23675813Y23769740D01*
X-23372777Y23769740D01*
X-23069740Y23769740D01*
X-23069740Y23618221D01*
X-23069740Y23466703D01*
X-22766703Y23466703D01*
X-22463666Y23466703D01*
X-22463666Y23618221D01*
X-22463666Y23769740D01*
X-22312148Y23769740D01*
X-22160629Y23769740D01*
X-22160629Y23618221D01*
X-22160629Y23466703D01*
X-22009111Y23466703D01*
X-21857592Y23466703D01*
X-21857592Y23315184D01*
X-21857592Y23163666D01*
X-21706074Y23163666D01*
X-21554555Y23163666D01*
X-21554555Y23466703D01*
X-21554555Y23769740D01*
X-21706074Y23769740D01*
X-21857592Y23769740D01*
X-21857592Y24224295D01*
X-21857592Y24678850D01*
X-22160629Y24678850D01*
X-22463666Y24678850D01*
X-22463666Y24527332D01*
X-22463666Y24375813D01*
X-22615184Y24375813D01*
X-22766703Y24375813D01*
X-22766703Y24224295D01*
X-22766703Y24072777D01*
X-22918221Y24072777D01*
X-23069740Y24072777D01*
X-23069740Y24375813D01*
X-23069740Y24678850D01*
X-22766703Y24678850D01*
X-22463666Y24678850D01*
X-22463666Y24830369D01*
X-22463666Y24981887D01*
X-22615184Y24981887D01*
X-22766703Y24981887D01*
X-22766703Y25133406D01*
X-22463666Y25133406D01*
X-22463666Y24981887D01*
X-22160629Y24981887D01*
X-21857592Y24981887D01*
X-21857592Y25133406D01*
X-21857592Y25284924D01*
X-21706074Y25284924D01*
X-21554555Y25284924D01*
X-21554555Y25133406D01*
X-21554555Y24981887D01*
X-21403037Y24981887D01*
X-21251518Y24981887D01*
X-21251518Y25284924D01*
X-21251518Y25587961D01*
X-20948482Y25587961D01*
X-20796963Y25587961D01*
X-20645445Y25587961D01*
X-20645445Y25739479D01*
X-20645445Y25890998D01*
X-20796963Y25890998D01*
X-20948482Y25890998D01*
X-20948482Y25739479D01*
X-20948482Y25587961D01*
X-21251518Y25587961D01*
X-21554555Y25587961D01*
X-21857592Y25587961D01*
X-21857592Y25436443D01*
X-21857592Y25284924D01*
X-22160629Y25284924D01*
X-22463666Y25284924D01*
X-22463666Y25133406D01*
X-22766703Y25133406D01*
X-22766703Y25284924D01*
X-22918221Y25284924D01*
X-23069740Y25284924D01*
X-23069740Y25436443D01*
X-23069740Y25587961D01*
X-22918221Y25587961D01*
X-22766703Y25587961D01*
X-22463666Y25587961D01*
X-22312148Y25587961D01*
X-22160629Y25587961D01*
X-22160629Y25739479D01*
X-22160629Y25890998D01*
X-22312148Y25890998D01*
X-22463666Y25890998D01*
X-22463666Y25739479D01*
X-22463666Y25587961D01*
X-22766703Y25587961D01*
X-22766703Y25739479D01*
X-22766703Y25890998D01*
X-22918221Y25890998D01*
X-23069740Y25890998D01*
X-23069740Y26042516D01*
X-23069740Y26194035D01*
X-22918221Y26194035D01*
X-22766703Y26194035D01*
X-22766703Y26042516D01*
G37*
D11*
%TO.C,J3*%
X11000000Y13000000D02*
X13500000Y13000000D01*
X11000000Y5000000D02*
X11000000Y10000000D01*
X11000000Y2000000D02*
X11000000Y500000D01*
X16500000Y13000000D02*
X19000000Y13000000D01*
X19000000Y5000000D02*
X19000000Y10000000D01*
X19000000Y2000000D02*
X19000000Y500000D01*
%TD*%
M02*
