%TF.GenerationSoftware,KiCad,Pcbnew,9.0.5*%
%TF.CreationDate,2025-10-22T22:20:53-05:00*%
%TF.ProjectId,audio_switch,61756469-6f5f-4737-9769-7463682e6b69,-*%
%TF.SameCoordinates,PX8282a50PY7459280*%
%TF.FileFunction,Copper,L2,Bot*%
%TF.FilePolarity,Positive*%
%FSLAX46Y46*%
G04 Gerber Fmt 4.6, Leading zero omitted, Abs format (unit mm)*
G04 Created by KiCad (PCBNEW 9.0.5) date 2025-10-22 22:20:53*
%MOMM*%
%LPD*%
G01*
G04 APERTURE LIST*
%TA.AperFunction,ComponentPad*%
%ADD10C,2.400000*%
%TD*%
%TA.AperFunction,ComponentPad*%
%ADD11C,3.000000*%
%TD*%
%TA.AperFunction,ViaPad*%
%ADD12C,0.609600*%
%TD*%
%TA.AperFunction,Conductor*%
%ADD13C,0.558800*%
%TD*%
%TA.AperFunction,Conductor*%
%ADD14C,0.406400*%
%TD*%
%TA.AperFunction,Conductor*%
%ADD15C,0.304800*%
%TD*%
G04 APERTURE END LIST*
D10*
%TO.P,J2,R1*%
%TO.N,/COM_RIGHT*%
X2850000Y11500000D03*
%TO.P,J2,R2*%
%TO.N,GND*%
X-2850000Y11500000D03*
%TO.P,J2,S*%
%TO.N,/COM_MIC*%
X0Y12300000D03*
%TO.P,J2,T*%
%TO.N,/COM_LEFT*%
X-3300000Y3500000D03*
X3300000Y3500000D03*
%TD*%
D11*
%TO.P,SW1,1,A*%
%TO.N,/A_MIC*%
X4700000Y20170000D03*
%TO.P,SW1,2,B*%
%TO.N,/COM_MIC*%
X0Y20170000D03*
%TO.P,SW1,3,C*%
%TO.N,/B_MIC*%
X-4700000Y20170000D03*
%TO.P,SW1,4,A*%
%TO.N,/A_RIGHT*%
X4700000Y25000000D03*
%TO.P,SW1,5,B*%
%TO.N,/COM_RIGHT*%
X0Y25000000D03*
%TO.P,SW1,6,C*%
%TO.N,/B_RIGHT*%
X-4700000Y25000000D03*
%TO.P,SW1,7,A*%
%TO.N,/A_LEFT*%
X4700000Y29830000D03*
%TO.P,SW1,8,B*%
%TO.N,/COM_LEFT*%
X0Y29830000D03*
%TO.P,SW1,9,C*%
%TO.N,/B_LEFT*%
X-4700000Y29830000D03*
%TD*%
D10*
%TO.P,J1,R1*%
%TO.N,/A_RIGHT*%
X-12150000Y11500000D03*
%TO.P,J1,R2*%
%TO.N,GND*%
X-17850000Y11500000D03*
%TO.P,J1,S*%
%TO.N,/A_MIC*%
X-15000000Y12300000D03*
%TO.P,J1,T*%
%TO.N,/A_LEFT*%
X-18300000Y3500000D03*
X-11700000Y3500000D03*
%TD*%
%TO.P,J3,R1*%
%TO.N,/B_RIGHT*%
X17850000Y11500000D03*
%TO.P,J3,R2*%
%TO.N,GND*%
X12150000Y11500000D03*
%TO.P,J3,S*%
%TO.N,/B_MIC*%
X15000000Y12300000D03*
%TO.P,J3,T*%
%TO.N,/B_LEFT*%
X11700000Y3500000D03*
X18300000Y3500000D03*
%TD*%
D12*
%TO.N,GND*%
X-7290000Y10550000D03*
X27500000Y10500000D03*
X-27500000Y10500000D03*
X7500000Y2500000D03*
X-1030000Y22640000D03*
X18500000Y32500000D03*
X2380000Y26080000D03*
X7260000Y32440000D03*
X27500000Y24500000D03*
X-7340000Y30640000D03*
X-11030000Y32550000D03*
X1240000Y18060000D03*
X-27500000Y17500000D03*
X11100000Y25100000D03*
X3600000Y16000000D03*
X-21300000Y2500000D03*
X-7500000Y2500000D03*
X-13500000Y15700000D03*
X13000000Y32500000D03*
X-16000000Y32500000D03*
X27500000Y17500000D03*
X21300000Y2430000D03*
X-10800000Y27800000D03*
X1360000Y13810000D03*
X8500000Y27100000D03*
X-2380000Y29120000D03*
X-18500000Y32500000D03*
X-27500000Y24500000D03*
X16400000Y14600000D03*
X2330000Y29110000D03*
%TD*%
D13*
%TO.N,/A_RIGHT*%
X5900000Y32000000D02*
X-9669507Y32000000D01*
X-12150000Y29519507D02*
X-12150000Y11500000D01*
X4700000Y25000000D02*
X7300000Y27600000D01*
D14*
X-12150000Y11500000D02*
X-12100000Y11550000D01*
D13*
X-9669507Y32000000D02*
X-12150000Y29519507D01*
X7300000Y30600000D02*
X5900000Y32000000D01*
X7300000Y27600000D02*
X7300000Y30600000D01*
D15*
%TO.N,GND*%
X7260000Y32440000D02*
X6900000Y32800000D01*
X-10780000Y32800000D02*
X-11030000Y32550000D01*
X6900000Y32800000D02*
X-10780000Y32800000D01*
D13*
%TO.N,/A_LEFT*%
X-11700000Y3500000D02*
X-8900000Y6300000D01*
X-6770000Y27530000D02*
X2400000Y27530000D01*
X-8900000Y25400000D02*
X-6770000Y27530000D01*
X2400000Y27530000D02*
X4700000Y29830000D01*
X-8900000Y6300000D02*
X-8900000Y25400000D01*
%TO.N,/A_MIC*%
X-15000000Y31200000D02*
X-15000000Y12300000D01*
X7600000Y33800000D02*
X-12400000Y33800000D01*
X4700000Y20170000D02*
X10100000Y25570000D01*
X10100000Y25570000D02*
X10100000Y31300000D01*
X10100000Y31300000D02*
X7600000Y33800000D01*
X-12400000Y33800000D02*
X-15000000Y31200000D01*
D14*
%TO.N,/COM_MIC*%
X0Y20100000D02*
X0Y20170000D01*
D13*
%TO.N,/COM_RIGHT*%
X0Y25000000D02*
X1200000Y25000000D01*
D14*
%TO.N,/B_MIC*%
X12300000Y15000000D02*
X15000000Y12300000D01*
X470000Y15000000D02*
X12300000Y15000000D01*
X-4700000Y20170000D02*
X470000Y15000000D01*
%TD*%
%TA.AperFunction,Conductor*%
%TO.N,GND*%
G36*
X-12493285Y34470935D02*
G01*
X-12463221Y34418864D01*
X-12473662Y34359650D01*
X-12519722Y34321001D01*
X-12527036Y34318695D01*
X-12606077Y34297517D01*
X-12727821Y34227228D01*
X-12727823Y34227227D01*
X-12727823Y34227226D01*
X-15327822Y31627226D01*
X-15327823Y31627227D01*
X-15427226Y31527823D01*
X-15427231Y31527816D01*
X-15497516Y31406081D01*
X-15497516Y31406079D01*
X-15533900Y31270289D01*
X-15533900Y13714253D01*
X-15554465Y13657752D01*
X-15581892Y13635935D01*
X-15648164Y13602168D01*
X-15762326Y13544000D01*
X-15947544Y13409431D01*
X-16109431Y13247544D01*
X-16244000Y13062326D01*
X-16347940Y12858331D01*
X-16350873Y12849300D01*
X-16387890Y12801919D01*
X-16434472Y12788561D01*
X-16435714Y12788561D01*
X-17258922Y11965354D01*
X-17267437Y11978097D01*
X-17371903Y12082563D01*
X-17384647Y12091079D01*
X-16561440Y12914285D01*
X-16587158Y12940003D01*
X-16785914Y13092514D01*
X-17002888Y13217783D01*
X-17002890Y13217784D01*
X-17234346Y13313655D01*
X-17234354Y13313658D01*
X-17476331Y13378496D01*
X-17476345Y13378499D01*
X-17724730Y13411200D01*
X-17975270Y13411200D01*
X-18223656Y13378499D01*
X-18223670Y13378496D01*
X-18465647Y13313658D01*
X-18465655Y13313655D01*
X-18697111Y13217784D01*
X-18697113Y13217783D01*
X-18914087Y13092514D01*
X-19112843Y12940003D01*
X-19138560Y12914285D01*
X-18315354Y12091079D01*
X-18328097Y12082563D01*
X-18432563Y11978097D01*
X-18441079Y11965354D01*
X-19264285Y12788560D01*
X-19290003Y12762843D01*
X-19442514Y12564087D01*
X-19567783Y12347113D01*
X-19567784Y12347111D01*
X-19663655Y12115655D01*
X-19663658Y12115647D01*
X-19728496Y11873670D01*
X-19728499Y11873656D01*
X-19761200Y11625270D01*
X-19761200Y11374731D01*
X-19728499Y11126345D01*
X-19728496Y11126331D01*
X-19663658Y10884354D01*
X-19663655Y10884346D01*
X-19567784Y10652890D01*
X-19567783Y10652888D01*
X-19442514Y10435914D01*
X-19290003Y10237158D01*
X-19264285Y10211440D01*
X-18441079Y11034647D01*
X-18432563Y11021903D01*
X-18328097Y10917437D01*
X-18315354Y10908922D01*
X-19138560Y10085715D01*
X-19112843Y10059998D01*
X-18914087Y9907487D01*
X-18697113Y9782218D01*
X-18697111Y9782217D01*
X-18465655Y9686346D01*
X-18465647Y9686343D01*
X-18223670Y9621505D01*
X-18223656Y9621502D01*
X-17975270Y9588800D01*
X-17724730Y9588800D01*
X-17476345Y9621502D01*
X-17476331Y9621505D01*
X-17234354Y9686343D01*
X-17234346Y9686346D01*
X-17002890Y9782217D01*
X-17002888Y9782218D01*
X-16785914Y9907487D01*
X-16587158Y10059998D01*
X-16561440Y10085715D01*
X-17384647Y10908922D01*
X-17371903Y10917437D01*
X-17267437Y11021903D01*
X-17258922Y11034647D01*
X-16435715Y10211440D01*
X-16409998Y10237158D01*
X-16257487Y10435914D01*
X-16132218Y10652888D01*
X-16132217Y10652890D01*
X-16036346Y10884346D01*
X-16036343Y10884353D01*
X-15986294Y11071136D01*
X-15951806Y11120389D01*
X-15893728Y11135952D01*
X-15849723Y11119499D01*
X-15762326Y11056001D01*
X-15762324Y11056000D01*
X-15558334Y10952062D01*
X-15340596Y10881314D01*
X-15340595Y10881314D01*
X-15340592Y10881313D01*
X-15286248Y10872707D01*
X-15114472Y10845500D01*
X-15114470Y10845500D01*
X-14885530Y10845500D01*
X-14885528Y10845500D01*
X-14690267Y10876426D01*
X-14659409Y10881313D01*
X-14659408Y10881314D01*
X-14659404Y10881314D01*
X-14441666Y10952062D01*
X-14237676Y11056000D01*
X-14052457Y11190569D01*
X-13890569Y11352457D01*
X-13763512Y11527337D01*
X-13713665Y11560959D01*
X-13653867Y11554674D01*
X-13612099Y11511422D01*
X-13604500Y11475670D01*
X-13604500Y11385528D01*
X-13599262Y11352457D01*
X-13568688Y11159409D01*
X-13556009Y11120389D01*
X-13497938Y10941666D01*
X-13448939Y10845500D01*
X-13394000Y10737675D01*
X-13259431Y10552457D01*
X-13097544Y10390570D01*
X-12912326Y10256001D01*
X-12912324Y10256000D01*
X-12708334Y10152062D01*
X-12490596Y10081314D01*
X-12490595Y10081314D01*
X-12490592Y10081313D01*
X-12436248Y10072707D01*
X-12264472Y10045500D01*
X-12264470Y10045500D01*
X-12035530Y10045500D01*
X-12035528Y10045500D01*
X-11840267Y10076426D01*
X-11809409Y10081313D01*
X-11809408Y10081314D01*
X-11809404Y10081314D01*
X-11591666Y10152062D01*
X-11387676Y10256000D01*
X-11202457Y10390569D01*
X-11040569Y10552457D01*
X-10906000Y10737676D01*
X-10802062Y10941666D01*
X-10731314Y11159404D01*
X-10695500Y11385528D01*
X-10695500Y11614472D01*
X-10731314Y11840596D01*
X-10802062Y12058334D01*
X-10906000Y12262324D01*
X-10951051Y12324331D01*
X-11040570Y12447544D01*
X-11202457Y12609431D01*
X-11387675Y12744000D01*
X-11501349Y12801919D01*
X-11568108Y12835935D01*
X-11609112Y12879908D01*
X-11616100Y12914253D01*
X-11616100Y29261949D01*
X-11595535Y29318450D01*
X-11590355Y29324104D01*
X-9474104Y31440355D01*
X-9419610Y31465766D01*
X-9411949Y31466100D01*
X-5703240Y31466100D01*
X-5646739Y31445535D01*
X-5616675Y31393464D01*
X-5627116Y31334250D01*
X-5659291Y31302076D01*
X-5676839Y31291946D01*
X-5676841Y31291945D01*
X-5859302Y31151937D01*
X-6021937Y30989302D01*
X-6161943Y30806843D01*
X-6276942Y30607658D01*
X-6276943Y30607656D01*
X-6364953Y30395178D01*
X-6364956Y30395171D01*
X-6424477Y30173033D01*
X-6424480Y30173021D01*
X-6454500Y29944998D01*
X-6454500Y29715003D01*
X-6424480Y29486980D01*
X-6424477Y29486968D01*
X-6401529Y29401323D01*
X-6364954Y29264824D01*
X-6318107Y29151724D01*
X-6276943Y29052345D01*
X-6276942Y29052343D01*
X-6276940Y29052339D01*
X-6234906Y28979534D01*
X-6161943Y28853158D01*
X-6038003Y28691636D01*
X-6021934Y28670695D01*
X-5859305Y28508066D01*
X-5676840Y28368056D01*
X-5477661Y28253060D01*
X-5429253Y28233009D01*
X-5384923Y28192388D01*
X-5377075Y28132775D01*
X-5409381Y28082064D01*
X-5462891Y28063900D01*
X-6840289Y28063900D01*
X-6976079Y28027516D01*
X-6976081Y28027516D01*
X-7097816Y27957231D01*
X-7097819Y27957229D01*
X-9227822Y25827226D01*
X-9227823Y25827227D01*
X-9327226Y25727823D01*
X-9327231Y25727816D01*
X-9397516Y25606081D01*
X-9397516Y25606079D01*
X-9433900Y25470289D01*
X-9433900Y6557559D01*
X-9454465Y6501058D01*
X-9459645Y6495404D01*
X-11077498Y4877552D01*
X-11131992Y4852141D01*
X-11166813Y4856109D01*
X-11298095Y4898766D01*
X-11359409Y4918688D01*
X-11559321Y4950350D01*
X-11585528Y4954500D01*
X-11814472Y4954500D01*
X-11837958Y4950781D01*
X-12040592Y4918688D01*
X-12258330Y4847940D01*
X-12462326Y4744000D01*
X-12647544Y4609431D01*
X-12809431Y4447544D01*
X-12944000Y4262326D01*
X-13047940Y4058330D01*
X-13118688Y3840592D01*
X-13154500Y3614471D01*
X-13154500Y3385530D01*
X-13118688Y3159409D01*
X-13050019Y2948072D01*
X-13047938Y2941666D01*
X-12998948Y2845517D01*
X-12944000Y2737675D01*
X-12809431Y2552457D01*
X-12647544Y2390570D01*
X-12462326Y2256001D01*
X-12462324Y2256000D01*
X-12258334Y2152062D01*
X-12040596Y2081314D01*
X-12040595Y2081314D01*
X-12040592Y2081313D01*
X-11986248Y2072707D01*
X-11814472Y2045500D01*
X-11814470Y2045500D01*
X-11585530Y2045500D01*
X-11585528Y2045500D01*
X-11390267Y2076426D01*
X-11359409Y2081313D01*
X-11359408Y2081314D01*
X-11359404Y2081314D01*
X-11141666Y2152062D01*
X-10937676Y2256000D01*
X-10752457Y2390569D01*
X-10590569Y2552457D01*
X-10456000Y2737676D01*
X-10352062Y2941666D01*
X-10281314Y3159404D01*
X-10245500Y3385528D01*
X-10245500Y3614471D01*
X-4754500Y3614471D01*
X-4754500Y3385530D01*
X-4718688Y3159409D01*
X-4650019Y2948072D01*
X-4647938Y2941666D01*
X-4598948Y2845517D01*
X-4544000Y2737675D01*
X-4409431Y2552457D01*
X-4247544Y2390570D01*
X-4062326Y2256001D01*
X-4062324Y2256000D01*
X-3858334Y2152062D01*
X-3640596Y2081314D01*
X-3640595Y2081314D01*
X-3640592Y2081313D01*
X-3586248Y2072707D01*
X-3414472Y2045500D01*
X-3414470Y2045500D01*
X-3185530Y2045500D01*
X-3185528Y2045500D01*
X-2990267Y2076426D01*
X-2959409Y2081313D01*
X-2959408Y2081314D01*
X-2959404Y2081314D01*
X-2941163Y2087241D01*
X-1108500Y2087241D01*
X-1108500Y1912760D01*
X-1081206Y1740429D01*
X-1029238Y1580484D01*
X-1027288Y1574484D01*
X-948074Y1419019D01*
X-845517Y1277861D01*
X-722139Y1154483D01*
X-580981Y1051926D01*
X-425516Y972712D01*
X-259574Y918795D01*
X-87241Y891500D01*
X-87240Y891500D01*
X87240Y891500D01*
X87241Y891500D01*
X259574Y918795D01*
X425516Y972712D01*
X580981Y1051926D01*
X722139Y1154483D01*
X845517Y1277861D01*
X948074Y1419019D01*
X1027288Y1574484D01*
X1081205Y1740426D01*
X1108500Y1912759D01*
X1108500Y2087241D01*
X1081205Y2259574D01*
X1027288Y2425516D01*
X948074Y2580981D01*
X845517Y2722139D01*
X722139Y2845517D01*
X580981Y2948074D01*
X425516Y3027288D01*
X425514Y3027289D01*
X425511Y3027290D01*
X259571Y3081206D01*
X127189Y3102173D01*
X87241Y3108500D01*
X-87241Y3108500D01*
X-119672Y3103364D01*
X-259572Y3081206D01*
X-425512Y3027290D01*
X-425519Y3027287D01*
X-580979Y2948075D01*
X-580985Y2948072D01*
X-722140Y2845517D01*
X-845517Y2722140D01*
X-948072Y2580985D01*
X-948075Y2580979D01*
X-1027287Y2425519D01*
X-1027290Y2425512D01*
X-1081206Y2259572D01*
X-1108500Y2087241D01*
X-2941163Y2087241D01*
X-2741666Y2152062D01*
X-2537676Y2256000D01*
X-2352457Y2390569D01*
X-2190569Y2552457D01*
X-2056000Y2737676D01*
X-1952062Y2941666D01*
X-1881314Y3159404D01*
X-1845500Y3385528D01*
X-1845500Y3614471D01*
X1845500Y3614471D01*
X1845500Y3385530D01*
X1881312Y3159409D01*
X1949981Y2948072D01*
X1952062Y2941666D01*
X2001052Y2845517D01*
X2056000Y2737675D01*
X2190569Y2552457D01*
X2352456Y2390570D01*
X2537674Y2256001D01*
X2537676Y2256000D01*
X2741666Y2152062D01*
X2959404Y2081314D01*
X2959405Y2081314D01*
X2959408Y2081313D01*
X3013752Y2072707D01*
X3185528Y2045500D01*
X3185530Y2045500D01*
X3414470Y2045500D01*
X3414472Y2045500D01*
X3609733Y2076426D01*
X3640591Y2081313D01*
X3640592Y2081314D01*
X3640596Y2081314D01*
X3858334Y2152062D01*
X4062324Y2256000D01*
X4247543Y2390569D01*
X4409431Y2552457D01*
X4544000Y2737676D01*
X4647938Y2941666D01*
X4718686Y3159404D01*
X4754500Y3385528D01*
X4754500Y3614471D01*
X10245500Y3614471D01*
X10245500Y3385530D01*
X10281312Y3159409D01*
X10349981Y2948072D01*
X10352062Y2941666D01*
X10401052Y2845517D01*
X10456000Y2737675D01*
X10590569Y2552457D01*
X10752456Y2390570D01*
X10937674Y2256001D01*
X10937676Y2256000D01*
X11141666Y2152062D01*
X11359404Y2081314D01*
X11359405Y2081314D01*
X11359408Y2081313D01*
X11413752Y2072707D01*
X11585528Y2045500D01*
X11585530Y2045500D01*
X11814470Y2045500D01*
X11814472Y2045500D01*
X12009733Y2076426D01*
X12040591Y2081313D01*
X12040592Y2081314D01*
X12040596Y2081314D01*
X12058837Y2087241D01*
X13891500Y2087241D01*
X13891500Y1912760D01*
X13918794Y1740429D01*
X13970762Y1580484D01*
X13972712Y1574484D01*
X14051926Y1419019D01*
X14154483Y1277861D01*
X14277861Y1154483D01*
X14419019Y1051926D01*
X14574484Y972712D01*
X14740426Y918795D01*
X14912759Y891500D01*
X14912760Y891500D01*
X15087240Y891500D01*
X15087241Y891500D01*
X15259574Y918795D01*
X15425516Y972712D01*
X15580981Y1051926D01*
X15722139Y1154483D01*
X15845517Y1277861D01*
X15948074Y1419019D01*
X16027288Y1574484D01*
X16081205Y1740426D01*
X16108500Y1912759D01*
X16108500Y2087241D01*
X16081205Y2259574D01*
X16027288Y2425516D01*
X15948074Y2580981D01*
X15845517Y2722139D01*
X15722139Y2845517D01*
X15580981Y2948074D01*
X15425516Y3027288D01*
X15425514Y3027289D01*
X15425511Y3027290D01*
X15259571Y3081206D01*
X15127189Y3102173D01*
X15087241Y3108500D01*
X14912759Y3108500D01*
X14880328Y3103364D01*
X14740428Y3081206D01*
X14574488Y3027290D01*
X14574481Y3027287D01*
X14419021Y2948075D01*
X14419015Y2948072D01*
X14277860Y2845517D01*
X14154483Y2722140D01*
X14051928Y2580985D01*
X14051925Y2580979D01*
X13972713Y2425519D01*
X13972710Y2425512D01*
X13918794Y2259572D01*
X13891500Y2087241D01*
X12058837Y2087241D01*
X12258334Y2152062D01*
X12462324Y2256000D01*
X12647543Y2390569D01*
X12809431Y2552457D01*
X12944000Y2737676D01*
X13047938Y2941666D01*
X13118686Y3159404D01*
X13154500Y3385528D01*
X13154500Y3614471D01*
X16845500Y3614471D01*
X16845500Y3385530D01*
X16881312Y3159409D01*
X16949981Y2948072D01*
X16952062Y2941666D01*
X17001052Y2845517D01*
X17056000Y2737675D01*
X17190569Y2552457D01*
X17352456Y2390570D01*
X17537674Y2256001D01*
X17537676Y2256000D01*
X17741666Y2152062D01*
X17959404Y2081314D01*
X17959405Y2081314D01*
X17959408Y2081313D01*
X18013752Y2072707D01*
X18185528Y2045500D01*
X18185530Y2045500D01*
X18414470Y2045500D01*
X18414472Y2045500D01*
X18609733Y2076426D01*
X18640591Y2081313D01*
X18640592Y2081314D01*
X18640596Y2081314D01*
X18858334Y2152062D01*
X19062324Y2256000D01*
X19247543Y2390569D01*
X19409431Y2552457D01*
X19544000Y2737676D01*
X19647938Y2941666D01*
X19718686Y3159404D01*
X19754500Y3385528D01*
X19754500Y3614472D01*
X19718686Y3840596D01*
X19647938Y4058334D01*
X19544000Y4262324D01*
X19409431Y4447543D01*
X19247543Y4609431D01*
X19210081Y4636649D01*
X19062325Y4744000D01*
X18964003Y4794097D01*
X18858334Y4847938D01*
X18858331Y4847939D01*
X18858329Y4847940D01*
X18640591Y4918688D01*
X18440679Y4950350D01*
X18414472Y4954500D01*
X18185528Y4954500D01*
X18162042Y4950781D01*
X17959408Y4918688D01*
X17741670Y4847940D01*
X17537674Y4744000D01*
X17352456Y4609431D01*
X17190569Y4447544D01*
X17056000Y4262326D01*
X16952060Y4058330D01*
X16881312Y3840592D01*
X16845500Y3614471D01*
X13154500Y3614471D01*
X13154500Y3614472D01*
X13118686Y3840596D01*
X13047938Y4058334D01*
X12944000Y4262324D01*
X12809431Y4447543D01*
X12647543Y4609431D01*
X12610081Y4636649D01*
X12462325Y4744000D01*
X12364003Y4794097D01*
X12258334Y4847938D01*
X12258331Y4847939D01*
X12258329Y4847940D01*
X12040591Y4918688D01*
X11840679Y4950350D01*
X11814472Y4954500D01*
X11585528Y4954500D01*
X11562042Y4950781D01*
X11359408Y4918688D01*
X11141670Y4847940D01*
X10937674Y4744000D01*
X10752456Y4609431D01*
X10590569Y4447544D01*
X10456000Y4262326D01*
X10352060Y4058330D01*
X10281312Y3840592D01*
X10245500Y3614471D01*
X4754500Y3614471D01*
X4754500Y3614472D01*
X4718686Y3840596D01*
X4647938Y4058334D01*
X4544000Y4262324D01*
X4409431Y4447543D01*
X4247543Y4609431D01*
X4210081Y4636649D01*
X4062325Y4744000D01*
X3964003Y4794097D01*
X3858334Y4847938D01*
X3858331Y4847939D01*
X3858329Y4847940D01*
X3640591Y4918688D01*
X3440679Y4950350D01*
X3414472Y4954500D01*
X3185528Y4954500D01*
X3162042Y4950781D01*
X2959408Y4918688D01*
X2741670Y4847940D01*
X2537674Y4744000D01*
X2352456Y4609431D01*
X2190569Y4447544D01*
X2056000Y4262326D01*
X1952060Y4058330D01*
X1881312Y3840592D01*
X1845500Y3614471D01*
X-1845500Y3614471D01*
X-1845500Y3614472D01*
X-1881314Y3840596D01*
X-1952062Y4058334D01*
X-2056000Y4262324D01*
X-2190569Y4447543D01*
X-2352457Y4609431D01*
X-2389919Y4636649D01*
X-2537675Y4744000D01*
X-2635997Y4794097D01*
X-2741666Y4847938D01*
X-2741669Y4847939D01*
X-2741671Y4847940D01*
X-2959409Y4918688D01*
X-3159321Y4950350D01*
X-3185528Y4954500D01*
X-3414472Y4954500D01*
X-3437958Y4950781D01*
X-3640592Y4918688D01*
X-3858330Y4847940D01*
X-4062326Y4744000D01*
X-4247544Y4609431D01*
X-4409431Y4447544D01*
X-4544000Y4262326D01*
X-4647940Y4058330D01*
X-4718688Y3840592D01*
X-4754500Y3614471D01*
X-10245500Y3614471D01*
X-10245500Y3614472D01*
X-10281314Y3840596D01*
X-10343892Y4033190D01*
X-10341794Y4093278D01*
X-10322452Y4122502D01*
X-9323137Y5121816D01*
X23141500Y5121816D01*
X23141500Y4878185D01*
X23173299Y4636649D01*
X23173302Y4636635D01*
X23223969Y4447544D01*
X23236354Y4401323D01*
X23285978Y4281519D01*
X23329582Y4176249D01*
X23329583Y4176247D01*
X23451399Y3965255D01*
X23547053Y3840596D01*
X23599707Y3771976D01*
X23771976Y3599707D01*
X23965257Y3451398D01*
X24176243Y3329585D01*
X24401323Y3236354D01*
X24636647Y3173299D01*
X24815695Y3149728D01*
X24878184Y3141500D01*
X24878187Y3141500D01*
X25121816Y3141500D01*
X25179343Y3149074D01*
X25363353Y3173299D01*
X25598677Y3236354D01*
X25823757Y3329585D01*
X26034743Y3451398D01*
X26228024Y3599707D01*
X26400293Y3771976D01*
X26548602Y3965257D01*
X26670415Y4176243D01*
X26763646Y4401323D01*
X26826701Y4636647D01*
X26855071Y4852141D01*
X26858500Y4878185D01*
X26858500Y5121816D01*
X26849938Y5186846D01*
X26826701Y5363353D01*
X26763646Y5598677D01*
X26670415Y5823757D01*
X26548602Y6034743D01*
X26400293Y6228024D01*
X26228024Y6400293D01*
X26205844Y6417312D01*
X26034745Y6548601D01*
X25964414Y6589207D01*
X25823757Y6670415D01*
X25823755Y6670416D01*
X25823753Y6670417D01*
X25823751Y6670418D01*
X25718481Y6714022D01*
X25598677Y6763646D01*
X25598670Y6763648D01*
X25363365Y6826698D01*
X25363360Y6826699D01*
X25363353Y6826701D01*
X25266737Y6839421D01*
X25121816Y6858500D01*
X25121813Y6858500D01*
X24878187Y6858500D01*
X24878184Y6858500D01*
X24697032Y6834651D01*
X24636647Y6826701D01*
X24636643Y6826700D01*
X24636634Y6826698D01*
X24401329Y6763648D01*
X24401325Y6763647D01*
X24401323Y6763646D01*
X24401321Y6763645D01*
X24176248Y6670418D01*
X24176246Y6670417D01*
X23965254Y6548601D01*
X23771979Y6400296D01*
X23599704Y6228021D01*
X23451399Y6034746D01*
X23329583Y5823754D01*
X23329582Y5823752D01*
X23236355Y5598679D01*
X23236352Y5598671D01*
X23173302Y5363366D01*
X23173299Y5363352D01*
X23141500Y5121816D01*
X-9323137Y5121816D01*
X-8472774Y5972178D01*
X-8457902Y5997939D01*
X-8402485Y6093920D01*
X-8402485Y6093921D01*
X-8402484Y6093922D01*
X-8366100Y6229711D01*
X-8366100Y6370289D01*
X-8366100Y9087241D01*
X-1108500Y9087241D01*
X-1108500Y8912760D01*
X-1081206Y8740429D01*
X-1081205Y8740426D01*
X-1027288Y8574484D01*
X-948074Y8419019D01*
X-845517Y8277861D01*
X-722139Y8154483D01*
X-580981Y8051926D01*
X-425516Y7972712D01*
X-259574Y7918795D01*
X-87241Y7891500D01*
X-87240Y7891500D01*
X87240Y7891500D01*
X87241Y7891500D01*
X259574Y7918795D01*
X425516Y7972712D01*
X580981Y8051926D01*
X722139Y8154483D01*
X845517Y8277861D01*
X948074Y8419019D01*
X1027288Y8574484D01*
X1081205Y8740426D01*
X1108500Y8912759D01*
X1108500Y9087241D01*
X13891500Y9087241D01*
X13891500Y8912760D01*
X13918794Y8740429D01*
X13918795Y8740426D01*
X13972712Y8574484D01*
X14051926Y8419019D01*
X14154483Y8277861D01*
X14277861Y8154483D01*
X14419019Y8051926D01*
X14574484Y7972712D01*
X14740426Y7918795D01*
X14912759Y7891500D01*
X14912760Y7891500D01*
X15087240Y7891500D01*
X15087241Y7891500D01*
X15259574Y7918795D01*
X15425516Y7972712D01*
X15580981Y8051926D01*
X15722139Y8154483D01*
X15845517Y8277861D01*
X15948074Y8419019D01*
X16027288Y8574484D01*
X16081205Y8740426D01*
X16108500Y8912759D01*
X16108500Y9087241D01*
X16081205Y9259574D01*
X16027288Y9425516D01*
X15948074Y9580981D01*
X15845517Y9722139D01*
X15722139Y9845517D01*
X15580984Y9948072D01*
X15580983Y9948073D01*
X15580981Y9948074D01*
X15425516Y10027288D01*
X15425514Y10027289D01*
X15425511Y10027290D01*
X15259571Y10081206D01*
X15127189Y10102173D01*
X15087241Y10108500D01*
X14912759Y10108500D01*
X14880328Y10103364D01*
X14740428Y10081206D01*
X14574488Y10027290D01*
X14574481Y10027287D01*
X14419021Y9948075D01*
X14419015Y9948072D01*
X14277860Y9845517D01*
X14154483Y9722140D01*
X14051928Y9580985D01*
X14051925Y9580979D01*
X13972713Y9425519D01*
X13972710Y9425512D01*
X13918794Y9259572D01*
X13891500Y9087241D01*
X1108500Y9087241D01*
X1081205Y9259574D01*
X1027288Y9425516D01*
X948074Y9580981D01*
X845517Y9722139D01*
X722139Y9845517D01*
X580984Y9948072D01*
X580983Y9948073D01*
X580981Y9948074D01*
X425516Y10027288D01*
X425514Y10027289D01*
X425511Y10027290D01*
X259571Y10081206D01*
X127189Y10102173D01*
X87241Y10108500D01*
X-87241Y10108500D01*
X-119672Y10103364D01*
X-259572Y10081206D01*
X-425512Y10027290D01*
X-425519Y10027287D01*
X-580979Y9948075D01*
X-580985Y9948072D01*
X-722140Y9845517D01*
X-845517Y9722140D01*
X-948072Y9580985D01*
X-948075Y9580979D01*
X-1027287Y9425519D01*
X-1027290Y9425512D01*
X-1081206Y9259572D01*
X-1108500Y9087241D01*
X-8366100Y9087241D01*
X-8366100Y11625270D01*
X-4761200Y11625270D01*
X-4761200Y11374731D01*
X-4728499Y11126345D01*
X-4728496Y11126331D01*
X-4663658Y10884354D01*
X-4663655Y10884346D01*
X-4567784Y10652890D01*
X-4567783Y10652888D01*
X-4442514Y10435914D01*
X-4290003Y10237158D01*
X-4264285Y10211440D01*
X-3441079Y11034647D01*
X-3432563Y11021903D01*
X-3328097Y10917437D01*
X-3315354Y10908922D01*
X-4138560Y10085715D01*
X-4112843Y10059998D01*
X-3914087Y9907487D01*
X-3697113Y9782218D01*
X-3697111Y9782217D01*
X-3465655Y9686346D01*
X-3465647Y9686343D01*
X-3223670Y9621505D01*
X-3223656Y9621502D01*
X-2975270Y9588800D01*
X-2724730Y9588800D01*
X-2476345Y9621502D01*
X-2476331Y9621505D01*
X-2234354Y9686343D01*
X-2234346Y9686346D01*
X-2002890Y9782217D01*
X-2002888Y9782218D01*
X-1785914Y9907487D01*
X-1587158Y10059998D01*
X-1561440Y10085715D01*
X-2384647Y10908922D01*
X-2371903Y10917437D01*
X-2267437Y11021903D01*
X-2258922Y11034647D01*
X-1435715Y10211440D01*
X-1409998Y10237158D01*
X-1257487Y10435914D01*
X-1132218Y10652888D01*
X-1132217Y10652890D01*
X-1036346Y10884346D01*
X-1036343Y10884353D01*
X-986294Y11071136D01*
X-951806Y11120389D01*
X-893728Y11135952D01*
X-849723Y11119499D01*
X-762326Y11056001D01*
X-762324Y11056000D01*
X-558334Y10952062D01*
X-340596Y10881314D01*
X-340595Y10881314D01*
X-340592Y10881313D01*
X-286248Y10872707D01*
X-114472Y10845500D01*
X-114470Y10845500D01*
X114470Y10845500D01*
X114472Y10845500D01*
X309733Y10876426D01*
X340591Y10881313D01*
X340592Y10881314D01*
X340596Y10881314D01*
X558334Y10952062D01*
X762324Y11056000D01*
X947543Y11190569D01*
X1109431Y11352457D01*
X1236488Y11527337D01*
X1286335Y11560959D01*
X1346133Y11554674D01*
X1387901Y11511422D01*
X1395500Y11475670D01*
X1395500Y11385528D01*
X1400738Y11352457D01*
X1431312Y11159409D01*
X1443991Y11120389D01*
X1502062Y10941666D01*
X1551061Y10845500D01*
X1606000Y10737675D01*
X1740569Y10552457D01*
X1902456Y10390570D01*
X2087674Y10256001D01*
X2087676Y10256000D01*
X2291666Y10152062D01*
X2509404Y10081314D01*
X2509405Y10081314D01*
X2509408Y10081313D01*
X2563752Y10072707D01*
X2735528Y10045500D01*
X2735530Y10045500D01*
X2964470Y10045500D01*
X2964472Y10045500D01*
X3159733Y10076426D01*
X3190591Y10081313D01*
X3190592Y10081314D01*
X3190596Y10081314D01*
X3408334Y10152062D01*
X3612324Y10256000D01*
X3797543Y10390569D01*
X3959431Y10552457D01*
X4094000Y10737676D01*
X4197938Y10941666D01*
X4268686Y11159404D01*
X4304500Y11385528D01*
X4304500Y11614472D01*
X4268686Y11840596D01*
X4197938Y12058334D01*
X4094000Y12262324D01*
X4048949Y12324331D01*
X3959430Y12447544D01*
X3797543Y12609431D01*
X3612325Y12744000D01*
X3498651Y12801919D01*
X3408334Y12847938D01*
X3408331Y12847939D01*
X3408329Y12847940D01*
X3349372Y12867096D01*
X3190591Y12918688D01*
X2990679Y12950350D01*
X2964472Y12954500D01*
X2735528Y12954500D01*
X2712042Y12950781D01*
X2509408Y12918688D01*
X2291670Y12847940D01*
X2087674Y12744000D01*
X1902456Y12609431D01*
X1740569Y12447544D01*
X1613513Y12272665D01*
X1563665Y12239042D01*
X1503867Y12245327D01*
X1462099Y12288579D01*
X1454500Y12324331D01*
X1454500Y12414471D01*
X1418687Y12640592D01*
X1385088Y12744000D01*
X1347938Y12858334D01*
X1244000Y13062324D01*
X1109431Y13247543D01*
X947543Y13409431D01*
X945108Y13411200D01*
X762325Y13544000D01*
X652614Y13599900D01*
X558334Y13647938D01*
X558331Y13647939D01*
X558329Y13647940D01*
X340591Y13718688D01*
X140679Y13750350D01*
X114472Y13754500D01*
X-114472Y13754500D01*
X-137958Y13750781D01*
X-340592Y13718688D01*
X-558330Y13647940D01*
X-762326Y13544000D01*
X-947544Y13409431D01*
X-1109431Y13247544D01*
X-1244000Y13062326D01*
X-1347940Y12858331D01*
X-1350873Y12849300D01*
X-1387890Y12801919D01*
X-1434472Y12788561D01*
X-1435714Y12788561D01*
X-2258922Y11965354D01*
X-2267437Y11978097D01*
X-2371903Y12082563D01*
X-2384647Y12091079D01*
X-1561440Y12914285D01*
X-1587158Y12940003D01*
X-1785914Y13092514D01*
X-2002888Y13217783D01*
X-2002890Y13217784D01*
X-2234346Y13313655D01*
X-2234354Y13313658D01*
X-2476331Y13378496D01*
X-2476345Y13378499D01*
X-2724730Y13411200D01*
X-2975270Y13411200D01*
X-3223656Y13378499D01*
X-3223670Y13378496D01*
X-3465647Y13313658D01*
X-3465655Y13313655D01*
X-3697111Y13217784D01*
X-3697113Y13217783D01*
X-3914087Y13092514D01*
X-4112843Y12940003D01*
X-4138560Y12914285D01*
X-3315354Y12091079D01*
X-3328097Y12082563D01*
X-3432563Y11978097D01*
X-3441079Y11965354D01*
X-4264285Y12788560D01*
X-4290003Y12762843D01*
X-4442514Y12564087D01*
X-4567783Y12347113D01*
X-4567784Y12347111D01*
X-4663655Y12115655D01*
X-4663658Y12115647D01*
X-4728496Y11873670D01*
X-4728499Y11873656D01*
X-4761200Y11625270D01*
X-8366100Y11625270D01*
X-8366100Y20284996D01*
X-6454500Y20284996D01*
X-6454500Y20055004D01*
X-6424480Y19826980D01*
X-6364954Y19604824D01*
X-6318107Y19491724D01*
X-6276943Y19392345D01*
X-6276942Y19392343D01*
X-6161943Y19193158D01*
X-6038003Y19031636D01*
X-6021934Y19010695D01*
X-5859305Y18848066D01*
X-5676840Y18708056D01*
X-5477661Y18593060D01*
X-5265176Y18505046D01*
X-5043020Y18445520D01*
X-4868053Y18422486D01*
X-4814998Y18415500D01*
X-4814996Y18415500D01*
X-4585002Y18415500D01*
X-4537477Y18421758D01*
X-4356980Y18445520D01*
X-4134824Y18505046D01*
X-3922339Y18593060D01*
X-3884392Y18614970D01*
X-3825179Y18625411D01*
X-3778287Y18601001D01*
X188965Y14633749D01*
X293334Y14573492D01*
X409742Y14542300D01*
X409743Y14542300D01*
X12074004Y14542300D01*
X12130505Y14521735D01*
X12136159Y14516555D01*
X12898214Y13754500D01*
X13654942Y12997773D01*
X13680353Y12943279D01*
X13671108Y12895714D01*
X13652059Y12858328D01*
X13649126Y12849298D01*
X13612108Y12801918D01*
X13565528Y12788561D01*
X13564286Y12788561D01*
X12741078Y11965354D01*
X12732563Y11978097D01*
X12628097Y12082563D01*
X12615353Y12091079D01*
X13438560Y12914285D01*
X13412842Y12940003D01*
X13214086Y13092514D01*
X12997112Y13217783D01*
X12997110Y13217784D01*
X12765654Y13313655D01*
X12765646Y13313658D01*
X12523669Y13378496D01*
X12523655Y13378499D01*
X12275270Y13411200D01*
X12024730Y13411200D01*
X11776344Y13378499D01*
X11776330Y13378496D01*
X11534353Y13313658D01*
X11534345Y13313655D01*
X11302889Y13217784D01*
X11302887Y13217783D01*
X11085913Y13092514D01*
X10887157Y12940003D01*
X10861440Y12914285D01*
X11684646Y12091079D01*
X11671903Y12082563D01*
X11567437Y11978097D01*
X11558921Y11965354D01*
X10735715Y12788560D01*
X10709997Y12762843D01*
X10557486Y12564087D01*
X10432217Y12347113D01*
X10432216Y12347111D01*
X10336345Y12115655D01*
X10336342Y12115647D01*
X10271504Y11873670D01*
X10271501Y11873656D01*
X10238800Y11625270D01*
X10238800Y11374731D01*
X10271501Y11126345D01*
X10271504Y11126331D01*
X10336342Y10884354D01*
X10336345Y10884346D01*
X10432216Y10652890D01*
X10432217Y10652888D01*
X10557486Y10435914D01*
X10709997Y10237158D01*
X10735715Y10211440D01*
X11558921Y11034647D01*
X11567437Y11021903D01*
X11671903Y10917437D01*
X11684646Y10908922D01*
X10861440Y10085715D01*
X10887157Y10059998D01*
X11085913Y9907487D01*
X11302887Y9782218D01*
X11302889Y9782217D01*
X11534345Y9686346D01*
X11534353Y9686343D01*
X11776330Y9621505D01*
X11776344Y9621502D01*
X12024730Y9588800D01*
X12275270Y9588800D01*
X12523655Y9621502D01*
X12523669Y9621505D01*
X12765646Y9686343D01*
X12765654Y9686346D01*
X12997110Y9782217D01*
X12997112Y9782218D01*
X13214086Y9907487D01*
X13412842Y10059998D01*
X13438560Y10085715D01*
X12615353Y10908922D01*
X12628097Y10917437D01*
X12732563Y11021903D01*
X12741078Y11034647D01*
X13564285Y10211440D01*
X13590002Y10237158D01*
X13742513Y10435914D01*
X13867782Y10652888D01*
X13867783Y10652890D01*
X13963654Y10884346D01*
X13963657Y10884353D01*
X14013706Y11071136D01*
X14048194Y11120389D01*
X14106272Y11135952D01*
X14150277Y11119499D01*
X14237674Y11056001D01*
X14237676Y11056000D01*
X14441666Y10952062D01*
X14659404Y10881314D01*
X14659405Y10881314D01*
X14659408Y10881313D01*
X14713752Y10872707D01*
X14885528Y10845500D01*
X14885530Y10845500D01*
X15114470Y10845500D01*
X15114472Y10845500D01*
X15309733Y10876426D01*
X15340591Y10881313D01*
X15340592Y10881314D01*
X15340596Y10881314D01*
X15558334Y10952062D01*
X15762324Y11056000D01*
X15947543Y11190569D01*
X16109431Y11352457D01*
X16236488Y11527337D01*
X16286335Y11560959D01*
X16346133Y11554674D01*
X16387901Y11511422D01*
X16395500Y11475670D01*
X16395500Y11385528D01*
X16400738Y11352457D01*
X16431312Y11159409D01*
X16443991Y11120389D01*
X16502062Y10941666D01*
X16551061Y10845500D01*
X16606000Y10737675D01*
X16740569Y10552457D01*
X16902456Y10390570D01*
X17087674Y10256001D01*
X17087676Y10256000D01*
X17291666Y10152062D01*
X17509404Y10081314D01*
X17509405Y10081314D01*
X17509408Y10081313D01*
X17563752Y10072707D01*
X17735528Y10045500D01*
X17735530Y10045500D01*
X17964470Y10045500D01*
X17964472Y10045500D01*
X18159733Y10076426D01*
X18190591Y10081313D01*
X18190592Y10081314D01*
X18190596Y10081314D01*
X18408334Y10152062D01*
X18612324Y10256000D01*
X18797543Y10390569D01*
X18959431Y10552457D01*
X19094000Y10737676D01*
X19197938Y10941666D01*
X19268686Y11159404D01*
X19304500Y11385528D01*
X19304500Y11614472D01*
X19268686Y11840596D01*
X19197938Y12058334D01*
X19094000Y12262324D01*
X19048949Y12324331D01*
X18959430Y12447544D01*
X18797543Y12609431D01*
X18612325Y12744000D01*
X18498651Y12801919D01*
X18408334Y12847938D01*
X18408331Y12847939D01*
X18408329Y12847940D01*
X18190591Y12918688D01*
X17990679Y12950350D01*
X17964472Y12954500D01*
X17735528Y12954500D01*
X17712042Y12950781D01*
X17509408Y12918688D01*
X17291670Y12847940D01*
X17087674Y12744000D01*
X16902456Y12609431D01*
X16740569Y12447544D01*
X16613513Y12272665D01*
X16563665Y12239042D01*
X16503867Y12245327D01*
X16462099Y12288579D01*
X16454500Y12324331D01*
X16454500Y12414471D01*
X16418687Y12640592D01*
X16385088Y12744000D01*
X16347938Y12858334D01*
X16244000Y13062324D01*
X16109431Y13247543D01*
X15947543Y13409431D01*
X15945108Y13411200D01*
X15762325Y13544000D01*
X15652614Y13599900D01*
X15558334Y13647938D01*
X15558331Y13647939D01*
X15558329Y13647940D01*
X15340591Y13718688D01*
X15140679Y13750350D01*
X15114472Y13754500D01*
X14885528Y13754500D01*
X14862042Y13750781D01*
X14659408Y13718688D01*
X14441672Y13647941D01*
X14404286Y13628892D01*
X14344607Y13621566D01*
X14302227Y13645058D01*
X12581036Y15366250D01*
X12581035Y15366251D01*
X12476666Y15426508D01*
X12476663Y15426509D01*
X12427466Y15439692D01*
X12360258Y15457700D01*
X12360257Y15457700D01*
X695996Y15457700D01*
X639495Y15478265D01*
X633841Y15483445D01*
X-3131001Y19248287D01*
X-3156412Y19302781D01*
X-3144969Y19354393D01*
X-3123060Y19392339D01*
X-3035046Y19604824D01*
X-2975520Y19826980D01*
X-2945500Y20055004D01*
X-2945500Y20284996D01*
X-1754500Y20284996D01*
X-1754500Y20055004D01*
X-1724480Y19826980D01*
X-1664954Y19604824D01*
X-1618107Y19491724D01*
X-1576943Y19392345D01*
X-1576942Y19392343D01*
X-1461943Y19193158D01*
X-1338003Y19031636D01*
X-1321934Y19010695D01*
X-1159305Y18848066D01*
X-976840Y18708056D01*
X-777661Y18593060D01*
X-565176Y18505046D01*
X-343020Y18445520D01*
X-168053Y18422486D01*
X-114998Y18415500D01*
X-114996Y18415500D01*
X114998Y18415500D01*
X162523Y18421758D01*
X343020Y18445520D01*
X565176Y18505046D01*
X777661Y18593060D01*
X976840Y18708056D01*
X1159305Y18848066D01*
X1321934Y19010695D01*
X1461944Y19193160D01*
X1576940Y19392339D01*
X1664954Y19604824D01*
X1724480Y19826980D01*
X1754500Y20055004D01*
X1754500Y20284996D01*
X1724480Y20513020D01*
X1664954Y20735176D01*
X1576940Y20947661D01*
X1461944Y21146840D01*
X1321934Y21329305D01*
X1159305Y21491934D01*
X1138364Y21508003D01*
X976842Y21631943D01*
X805701Y21730751D01*
X777661Y21746940D01*
X777659Y21746941D01*
X777657Y21746942D01*
X777655Y21746943D01*
X678276Y21788107D01*
X565176Y21834954D01*
X565172Y21834955D01*
X565170Y21834956D01*
X343032Y21894477D01*
X343020Y21894480D01*
X114998Y21924500D01*
X114996Y21924500D01*
X-114996Y21924500D01*
X-114998Y21924500D01*
X-343021Y21894480D01*
X-343033Y21894477D01*
X-565171Y21834956D01*
X-565178Y21834953D01*
X-777656Y21746943D01*
X-777658Y21746942D01*
X-976843Y21631943D01*
X-1159302Y21491937D01*
X-1321937Y21329302D01*
X-1461943Y21146843D01*
X-1576942Y20947658D01*
X-1576943Y20947656D01*
X-1664953Y20735178D01*
X-1664956Y20735171D01*
X-1724477Y20513033D01*
X-1724480Y20513020D01*
X-1754500Y20284996D01*
X-2945500Y20284996D01*
X-2975520Y20513020D01*
X-3035046Y20735176D01*
X-3123060Y20947661D01*
X-3238056Y21146840D01*
X-3378066Y21329305D01*
X-3540695Y21491934D01*
X-3561636Y21508003D01*
X-3723158Y21631943D01*
X-3894299Y21730751D01*
X-3922339Y21746940D01*
X-3922341Y21746941D01*
X-3922343Y21746942D01*
X-3922345Y21746943D01*
X-4021724Y21788107D01*
X-4134824Y21834954D01*
X-4134828Y21834955D01*
X-4134830Y21834956D01*
X-4356968Y21894477D01*
X-4356980Y21894480D01*
X-4585002Y21924500D01*
X-4585004Y21924500D01*
X-4814996Y21924500D01*
X-4814998Y21924500D01*
X-5043021Y21894480D01*
X-5043033Y21894477D01*
X-5265171Y21834956D01*
X-5265178Y21834953D01*
X-5477656Y21746943D01*
X-5477658Y21746942D01*
X-5676843Y21631943D01*
X-5859302Y21491937D01*
X-6021937Y21329302D01*
X-6161943Y21146843D01*
X-6276942Y20947658D01*
X-6276943Y20947656D01*
X-6364953Y20735178D01*
X-6364956Y20735171D01*
X-6424477Y20513033D01*
X-6424480Y20513020D01*
X-6454500Y20284996D01*
X-8366100Y20284996D01*
X-8366100Y25114996D01*
X-6454500Y25114996D01*
X-6454500Y24885004D01*
X-6424480Y24656980D01*
X-6364954Y24434824D01*
X-6318107Y24321724D01*
X-6276943Y24222345D01*
X-6276942Y24222343D01*
X-6161943Y24023158D01*
X-6038003Y23861636D01*
X-6021934Y23840695D01*
X-5859305Y23678066D01*
X-5676840Y23538056D01*
X-5477661Y23423060D01*
X-5265176Y23335046D01*
X-5043020Y23275520D01*
X-4868053Y23252486D01*
X-4814998Y23245500D01*
X-4814996Y23245500D01*
X-4585002Y23245500D01*
X-4537477Y23251758D01*
X-4356980Y23275520D01*
X-4134824Y23335046D01*
X-3922339Y23423060D01*
X-3723160Y23538056D01*
X-3540695Y23678066D01*
X-3378066Y23840695D01*
X-3238056Y24023160D01*
X-3123060Y24222339D01*
X-3035046Y24434824D01*
X-2975520Y24656980D01*
X-2945500Y24885004D01*
X-2945500Y25114996D01*
X-1754500Y25114996D01*
X-1754500Y24885004D01*
X-1724480Y24656980D01*
X-1664954Y24434824D01*
X-1618107Y24321724D01*
X-1576943Y24222345D01*
X-1576942Y24222343D01*
X-1461943Y24023158D01*
X-1338003Y23861636D01*
X-1321934Y23840695D01*
X-1159305Y23678066D01*
X-976840Y23538056D01*
X-777661Y23423060D01*
X-565176Y23335046D01*
X-343020Y23275520D01*
X-168053Y23252486D01*
X-114998Y23245500D01*
X-114996Y23245500D01*
X114998Y23245500D01*
X162523Y23251758D01*
X343020Y23275520D01*
X565176Y23335046D01*
X777661Y23423060D01*
X976840Y23538056D01*
X1159305Y23678066D01*
X1321934Y23840695D01*
X1461944Y24023160D01*
X1576940Y24222339D01*
X1664954Y24434824D01*
X1724480Y24656980D01*
X1754500Y24885004D01*
X1754500Y25114996D01*
X1724480Y25343020D01*
X1664954Y25565176D01*
X1576940Y25777661D01*
X1461944Y25976840D01*
X1321934Y26159305D01*
X1159305Y26321934D01*
X1138364Y26338003D01*
X976842Y26461943D01*
X805701Y26560751D01*
X777661Y26576940D01*
X777659Y26576941D01*
X777657Y26576942D01*
X777655Y26576943D01*
X678276Y26618107D01*
X565176Y26664954D01*
X565172Y26664955D01*
X565170Y26664956D01*
X343032Y26724477D01*
X343020Y26724480D01*
X114998Y26754500D01*
X114996Y26754500D01*
X-114996Y26754500D01*
X-114998Y26754500D01*
X-343021Y26724480D01*
X-343033Y26724477D01*
X-565171Y26664956D01*
X-565178Y26664953D01*
X-777656Y26576943D01*
X-777658Y26576942D01*
X-976843Y26461943D01*
X-1159302Y26321937D01*
X-1321937Y26159302D01*
X-1461943Y25976843D01*
X-1576942Y25777658D01*
X-1576943Y25777656D01*
X-1664953Y25565178D01*
X-1664956Y25565171D01*
X-1724477Y25343033D01*
X-1724480Y25343020D01*
X-1754500Y25114996D01*
X-2945500Y25114996D01*
X-2975520Y25343020D01*
X-3035046Y25565176D01*
X-3123060Y25777661D01*
X-3238056Y25976840D01*
X-3378066Y26159305D01*
X-3540695Y26321934D01*
X-3561636Y26338003D01*
X-3723158Y26461943D01*
X-3894299Y26560751D01*
X-3922339Y26576940D01*
X-3922341Y26576941D01*
X-3922343Y26576942D01*
X-3922345Y26576943D01*
X-4021724Y26618107D01*
X-4134824Y26664954D01*
X-4134828Y26664955D01*
X-4134830Y26664956D01*
X-4356968Y26724477D01*
X-4356980Y26724480D01*
X-4585002Y26754500D01*
X-4585004Y26754500D01*
X-4814996Y26754500D01*
X-4814998Y26754500D01*
X-5043021Y26724480D01*
X-5043033Y26724477D01*
X-5265171Y26664956D01*
X-5265178Y26664953D01*
X-5477656Y26576943D01*
X-5477658Y26576942D01*
X-5676843Y26461943D01*
X-5859302Y26321937D01*
X-6021937Y26159302D01*
X-6161943Y25976843D01*
X-6276942Y25777658D01*
X-6276943Y25777656D01*
X-6364953Y25565178D01*
X-6364956Y25565171D01*
X-6424477Y25343033D01*
X-6424480Y25343020D01*
X-6454500Y25114996D01*
X-8366100Y25114996D01*
X-8366100Y25142442D01*
X-8345535Y25198943D01*
X-8340355Y25204597D01*
X-6574597Y26970355D01*
X-6520103Y26995766D01*
X-6512442Y26996100D01*
X2470288Y26996100D01*
X2470289Y26996100D01*
X2606078Y27032484D01*
X2727822Y27102774D01*
X3849532Y28224486D01*
X3904025Y28249896D01*
X3945324Y28243539D01*
X3962673Y28236353D01*
X4134824Y28165046D01*
X4356980Y28105520D01*
X4531947Y28082486D01*
X4585002Y28075500D01*
X4585004Y28075500D01*
X4814998Y28075500D01*
X4864854Y28082064D01*
X5043020Y28105520D01*
X5265176Y28165046D01*
X5477661Y28253060D01*
X5676840Y28368056D01*
X5859305Y28508066D01*
X6021934Y28670695D01*
X6161944Y28853160D01*
X6276940Y29052339D01*
X6364954Y29264824D01*
X6424480Y29486980D01*
X6454500Y29715004D01*
X6454500Y29944996D01*
X6454271Y29946733D01*
X6447514Y29998053D01*
X6424480Y30173020D01*
X6364954Y30395176D01*
X6276940Y30607661D01*
X6255126Y30645443D01*
X6244686Y30704655D01*
X6274750Y30756726D01*
X6331251Y30777291D01*
X6387752Y30756726D01*
X6393406Y30751546D01*
X6740355Y30404597D01*
X6765766Y30350103D01*
X6766100Y30342442D01*
X6766100Y27857559D01*
X6745535Y27801058D01*
X6740355Y27795404D01*
X5550466Y26605516D01*
X5495972Y26580105D01*
X5454673Y26586462D01*
X5408672Y26605516D01*
X5265176Y26664954D01*
X5265172Y26664955D01*
X5265170Y26664956D01*
X5043032Y26724477D01*
X5043020Y26724480D01*
X4814998Y26754500D01*
X4814996Y26754500D01*
X4585004Y26754500D01*
X4585002Y26754500D01*
X4356979Y26724480D01*
X4356967Y26724477D01*
X4134829Y26664956D01*
X4134822Y26664953D01*
X3922344Y26576943D01*
X3922342Y26576942D01*
X3723157Y26461943D01*
X3540698Y26321937D01*
X3378063Y26159302D01*
X3238057Y25976843D01*
X3123058Y25777658D01*
X3123057Y25777656D01*
X3035047Y25565178D01*
X3035044Y25565171D01*
X2975523Y25343033D01*
X2975520Y25343020D01*
X2945500Y25114996D01*
X2945500Y24885004D01*
X2975520Y24656980D01*
X3035046Y24434824D01*
X3081893Y24321724D01*
X3123057Y24222345D01*
X3123058Y24222343D01*
X3238057Y24023158D01*
X3361997Y23861636D01*
X3378066Y23840695D01*
X3540695Y23678066D01*
X3723160Y23538056D01*
X3922339Y23423060D01*
X4134824Y23335046D01*
X4356980Y23275520D01*
X4531947Y23252486D01*
X4585002Y23245500D01*
X4585004Y23245500D01*
X4814998Y23245500D01*
X4862523Y23251758D01*
X5043020Y23275520D01*
X5265176Y23335046D01*
X5477661Y23423060D01*
X5676840Y23538056D01*
X5859305Y23678066D01*
X6021934Y23840695D01*
X6161944Y24023160D01*
X6276940Y24222339D01*
X6364954Y24434824D01*
X6424480Y24656980D01*
X6454500Y24885004D01*
X6454500Y25114996D01*
X6424480Y25343020D01*
X6364954Y25565176D01*
X6286460Y25754676D01*
X6283838Y25814745D01*
X6305515Y25850468D01*
X6614352Y26159305D01*
X7727226Y27272177D01*
X7797516Y27393922D01*
X7833900Y27529711D01*
X7833900Y30670289D01*
X7797516Y30806078D01*
X7797515Y30806080D01*
X7797515Y30806081D01*
X7727230Y30927816D01*
X7727225Y30927823D01*
X7627822Y31027227D01*
X7627822Y31027226D01*
X6227822Y32427226D01*
X6227819Y32427228D01*
X6227818Y32427229D01*
X6227815Y32427231D01*
X6106079Y32497516D01*
X5970289Y32533900D01*
X-9599218Y32533900D01*
X-9739796Y32533900D01*
X-9875586Y32497516D01*
X-9875588Y32497516D01*
X-9997323Y32427231D01*
X-9997326Y32427229D01*
X-12477822Y29946733D01*
X-12477823Y29946734D01*
X-12577226Y29847330D01*
X-12577231Y29847323D01*
X-12647516Y29725588D01*
X-12647516Y29725586D01*
X-12683900Y29589796D01*
X-12683900Y12914253D01*
X-12704465Y12857752D01*
X-12731892Y12835935D01*
X-12798164Y12802168D01*
X-12912326Y12744000D01*
X-13097544Y12609431D01*
X-13259431Y12447544D01*
X-13386487Y12272665D01*
X-13436335Y12239042D01*
X-13496133Y12245327D01*
X-13537901Y12288579D01*
X-13545500Y12324331D01*
X-13545500Y12414471D01*
X-13581313Y12640592D01*
X-13614912Y12744000D01*
X-13652062Y12858334D01*
X-13756000Y13062324D01*
X-13890569Y13247543D01*
X-14052457Y13409431D01*
X-14054892Y13411200D01*
X-14237675Y13544000D01*
X-14347386Y13599900D01*
X-14418108Y13635935D01*
X-14459112Y13679908D01*
X-14466100Y13714253D01*
X-14466100Y30942442D01*
X-14445535Y30998943D01*
X-14440355Y31004597D01*
X-12204596Y33240355D01*
X-12150102Y33265766D01*
X-12142441Y33266100D01*
X7342442Y33266100D01*
X7398943Y33245535D01*
X7404597Y33240355D01*
X9540355Y31104597D01*
X9565766Y31050103D01*
X9566100Y31042442D01*
X9566100Y25827559D01*
X9545535Y25771058D01*
X9540355Y25765404D01*
X5550466Y21775516D01*
X5495972Y21750105D01*
X5454673Y21756462D01*
X5408672Y21775516D01*
X5265176Y21834954D01*
X5265172Y21834955D01*
X5265170Y21834956D01*
X5043032Y21894477D01*
X5043020Y21894480D01*
X4814998Y21924500D01*
X4814996Y21924500D01*
X4585004Y21924500D01*
X4585002Y21924500D01*
X4356979Y21894480D01*
X4356967Y21894477D01*
X4134829Y21834956D01*
X4134822Y21834953D01*
X3922344Y21746943D01*
X3922342Y21746942D01*
X3723157Y21631943D01*
X3540698Y21491937D01*
X3378063Y21329302D01*
X3238057Y21146843D01*
X3123058Y20947658D01*
X3123057Y20947656D01*
X3035047Y20735178D01*
X3035044Y20735171D01*
X2975523Y20513033D01*
X2975520Y20513020D01*
X2945500Y20284996D01*
X2945500Y20055004D01*
X2975520Y19826980D01*
X3035046Y19604824D01*
X3081893Y19491724D01*
X3123057Y19392345D01*
X3123058Y19392343D01*
X3238057Y19193158D01*
X3361997Y19031636D01*
X3378066Y19010695D01*
X3540695Y18848066D01*
X3723160Y18708056D01*
X3922339Y18593060D01*
X4134824Y18505046D01*
X4356980Y18445520D01*
X4531947Y18422486D01*
X4585002Y18415500D01*
X4585004Y18415500D01*
X4814998Y18415500D01*
X4862523Y18421758D01*
X5043020Y18445520D01*
X5265176Y18505046D01*
X5477661Y18593060D01*
X5676840Y18708056D01*
X5859305Y18848066D01*
X6021934Y19010695D01*
X6161944Y19193160D01*
X6276940Y19392339D01*
X6364954Y19604824D01*
X6424480Y19826980D01*
X6454500Y20055004D01*
X6454500Y20284996D01*
X6424480Y20513020D01*
X6364954Y20735176D01*
X6286461Y20924676D01*
X6283838Y20984746D01*
X6305513Y21020467D01*
X10527226Y25242177D01*
X10597516Y25363922D01*
X10614478Y25427226D01*
X10633900Y25499711D01*
X10633900Y30121813D01*
X23141500Y30121813D01*
X23141500Y29878187D01*
X23173299Y29636647D01*
X23236354Y29401323D01*
X23268339Y29324104D01*
X23329582Y29176249D01*
X23329583Y29176247D01*
X23451399Y28965255D01*
X23537414Y28853158D01*
X23599707Y28771976D01*
X23771976Y28599707D01*
X23965257Y28451398D01*
X24176243Y28329585D01*
X24401323Y28236354D01*
X24636647Y28173299D01*
X24815695Y28149728D01*
X24878184Y28141500D01*
X24878187Y28141500D01*
X25121816Y28141500D01*
X25179343Y28149074D01*
X25363353Y28173299D01*
X25598677Y28236354D01*
X25823757Y28329585D01*
X26034743Y28451398D01*
X26228024Y28599707D01*
X26400293Y28771976D01*
X26548602Y28965257D01*
X26670415Y29176243D01*
X26763646Y29401323D01*
X26826701Y29636647D01*
X26858500Y29878187D01*
X26858500Y30121813D01*
X26826701Y30363353D01*
X26763646Y30598677D01*
X26670415Y30823757D01*
X26548602Y31034743D01*
X26542694Y31042442D01*
X26400295Y31228021D01*
X26400293Y31228024D01*
X26228024Y31400293D01*
X26169063Y31445535D01*
X26034745Y31548601D01*
X25898562Y31627226D01*
X25823757Y31670415D01*
X25823755Y31670416D01*
X25823753Y31670417D01*
X25823751Y31670418D01*
X25718481Y31714022D01*
X25598677Y31763646D01*
X25598670Y31763648D01*
X25363365Y31826698D01*
X25363360Y31826699D01*
X25363353Y31826701D01*
X25266737Y31839421D01*
X25121816Y31858500D01*
X25121813Y31858500D01*
X24878187Y31858500D01*
X24878184Y31858500D01*
X24697032Y31834651D01*
X24636647Y31826701D01*
X24636643Y31826700D01*
X24636634Y31826698D01*
X24401329Y31763648D01*
X24401325Y31763647D01*
X24401323Y31763646D01*
X24401321Y31763645D01*
X24176248Y31670418D01*
X24176246Y31670417D01*
X23965254Y31548601D01*
X23771979Y31400296D01*
X23599704Y31228021D01*
X23451399Y31034746D01*
X23329583Y30823754D01*
X23329582Y30823752D01*
X23236355Y30598679D01*
X23236352Y30598671D01*
X23173302Y30363366D01*
X23173299Y30363352D01*
X23148242Y30173021D01*
X23141500Y30121813D01*
X10633900Y30121813D01*
X10633900Y31370289D01*
X10597516Y31506078D01*
X10597515Y31506080D01*
X10597515Y31506081D01*
X10527230Y31627816D01*
X10527225Y31627823D01*
X10427822Y31727227D01*
X10427822Y31727226D01*
X7927822Y34227226D01*
X7927819Y34227228D01*
X7927818Y34227229D01*
X7927815Y34227231D01*
X7806080Y34297516D01*
X7806078Y34297517D01*
X7727036Y34318695D01*
X7677783Y34353182D01*
X7662220Y34411261D01*
X7687631Y34465754D01*
X7742125Y34491165D01*
X7749786Y34491500D01*
X26933055Y34491500D01*
X26997338Y34491500D01*
X27002645Y34491340D01*
X27295017Y34473655D01*
X27305548Y34472376D01*
X27591034Y34420059D01*
X27601315Y34417526D01*
X27789109Y34359006D01*
X27878424Y34331174D01*
X27888348Y34327410D01*
X27907712Y34318695D01*
X28153017Y34208293D01*
X28162400Y34203368D01*
X28410781Y34053216D01*
X28419516Y34047187D01*
X28647981Y33868197D01*
X28655927Y33861158D01*
X28861157Y33655928D01*
X28868196Y33647982D01*
X29047186Y33419517D01*
X29053215Y33410782D01*
X29190671Y33183403D01*
X29203363Y33162409D01*
X29208296Y33153010D01*
X29327409Y32888349D01*
X29331173Y32878425D01*
X29417521Y32601329D01*
X29420061Y32591022D01*
X29472374Y32305552D01*
X29473654Y32295016D01*
X29491340Y32002647D01*
X29491500Y31997339D01*
X29491500Y3002662D01*
X29491340Y2997354D01*
X29473654Y2704985D01*
X29472374Y2694449D01*
X29420061Y2408979D01*
X29417521Y2398672D01*
X29331173Y2121576D01*
X29327409Y2111652D01*
X29208296Y1846991D01*
X29203363Y1837592D01*
X29053215Y1589219D01*
X29047186Y1580484D01*
X28868196Y1352019D01*
X28861157Y1344073D01*
X28655927Y1138843D01*
X28647981Y1131804D01*
X28419516Y952814D01*
X28410781Y946785D01*
X28162408Y796637D01*
X28153009Y791704D01*
X27888348Y672591D01*
X27878424Y668827D01*
X27601328Y582479D01*
X27591021Y579939D01*
X27305551Y527626D01*
X27295015Y526346D01*
X27023530Y509924D01*
X27002644Y508660D01*
X26997338Y508500D01*
X-26997338Y508500D01*
X-27002645Y508660D01*
X-27025312Y510032D01*
X-27295016Y526346D01*
X-27305552Y527626D01*
X-27591022Y579939D01*
X-27601329Y582479D01*
X-27878425Y668827D01*
X-27888349Y672591D01*
X-28153010Y791704D01*
X-28162409Y796637D01*
X-28410782Y946785D01*
X-28419517Y952814D01*
X-28647982Y1131804D01*
X-28655928Y1138843D01*
X-28861158Y1344073D01*
X-28868197Y1352019D01*
X-29047189Y1580486D01*
X-29053216Y1589219D01*
X-29203368Y1837600D01*
X-29208293Y1846983D01*
X-29327410Y2111652D01*
X-29331174Y2121576D01*
X-29343043Y2159664D01*
X-29417526Y2398685D01*
X-29420059Y2408966D01*
X-29472376Y2694452D01*
X-29473655Y2704986D01*
X-29474693Y2722139D01*
X-29491340Y2997355D01*
X-29491500Y3002662D01*
X-29491500Y5121816D01*
X-26858500Y5121816D01*
X-26858500Y4878185D01*
X-26826701Y4636649D01*
X-26826698Y4636635D01*
X-26776031Y4447544D01*
X-26763646Y4401323D01*
X-26714022Y4281519D01*
X-26670418Y4176249D01*
X-26670417Y4176247D01*
X-26548601Y3965255D01*
X-26452947Y3840596D01*
X-26400293Y3771976D01*
X-26228024Y3599707D01*
X-26034743Y3451398D01*
X-25823757Y3329585D01*
X-25598677Y3236354D01*
X-25363353Y3173299D01*
X-25184305Y3149728D01*
X-25121816Y3141500D01*
X-25121813Y3141500D01*
X-24878184Y3141500D01*
X-24820657Y3149074D01*
X-24636647Y3173299D01*
X-24401323Y3236354D01*
X-24176243Y3329585D01*
X-23965257Y3451398D01*
X-23771976Y3599707D01*
X-23757212Y3614471D01*
X-19754500Y3614471D01*
X-19754500Y3385530D01*
X-19718688Y3159409D01*
X-19650019Y2948072D01*
X-19647938Y2941666D01*
X-19598948Y2845517D01*
X-19544000Y2737675D01*
X-19409431Y2552457D01*
X-19247544Y2390570D01*
X-19062326Y2256001D01*
X-19062324Y2256000D01*
X-18858334Y2152062D01*
X-18640596Y2081314D01*
X-18640595Y2081314D01*
X-18640592Y2081313D01*
X-18586248Y2072707D01*
X-18414472Y2045500D01*
X-18414470Y2045500D01*
X-18185530Y2045500D01*
X-18185528Y2045500D01*
X-17990267Y2076426D01*
X-17959409Y2081313D01*
X-17959408Y2081314D01*
X-17959404Y2081314D01*
X-17941163Y2087241D01*
X-16108500Y2087241D01*
X-16108500Y1912760D01*
X-16081206Y1740429D01*
X-16029238Y1580484D01*
X-16027288Y1574484D01*
X-15948074Y1419019D01*
X-15845517Y1277861D01*
X-15722139Y1154483D01*
X-15580981Y1051926D01*
X-15425516Y972712D01*
X-15259574Y918795D01*
X-15087241Y891500D01*
X-15087240Y891500D01*
X-14912760Y891500D01*
X-14912759Y891500D01*
X-14740426Y918795D01*
X-14574484Y972712D01*
X-14419019Y1051926D01*
X-14277861Y1154483D01*
X-14154483Y1277861D01*
X-14051926Y1419019D01*
X-13972712Y1574484D01*
X-13918795Y1740426D01*
X-13891500Y1912759D01*
X-13891500Y2087241D01*
X-13918795Y2259574D01*
X-13972712Y2425516D01*
X-14051926Y2580981D01*
X-14154483Y2722139D01*
X-14277861Y2845517D01*
X-14419019Y2948074D01*
X-14574484Y3027288D01*
X-14574486Y3027289D01*
X-14574489Y3027290D01*
X-14740429Y3081206D01*
X-14872811Y3102173D01*
X-14912759Y3108500D01*
X-15087241Y3108500D01*
X-15119672Y3103364D01*
X-15259572Y3081206D01*
X-15425512Y3027290D01*
X-15425519Y3027287D01*
X-15580979Y2948075D01*
X-15580985Y2948072D01*
X-15722140Y2845517D01*
X-15845517Y2722140D01*
X-15948072Y2580985D01*
X-15948075Y2580979D01*
X-16027287Y2425519D01*
X-16027290Y2425512D01*
X-16081206Y2259572D01*
X-16108500Y2087241D01*
X-17941163Y2087241D01*
X-17741666Y2152062D01*
X-17537676Y2256000D01*
X-17352457Y2390569D01*
X-17190569Y2552457D01*
X-17056000Y2737676D01*
X-16952062Y2941666D01*
X-16881314Y3159404D01*
X-16845500Y3385528D01*
X-16845500Y3614472D01*
X-16881314Y3840596D01*
X-16952062Y4058334D01*
X-17056000Y4262324D01*
X-17190569Y4447543D01*
X-17352457Y4609431D01*
X-17389919Y4636649D01*
X-17537675Y4744000D01*
X-17635997Y4794097D01*
X-17741666Y4847938D01*
X-17741669Y4847939D01*
X-17741671Y4847940D01*
X-17959409Y4918688D01*
X-18159321Y4950350D01*
X-18185528Y4954500D01*
X-18414472Y4954500D01*
X-18437958Y4950781D01*
X-18640592Y4918688D01*
X-18858330Y4847940D01*
X-19062326Y4744000D01*
X-19247544Y4609431D01*
X-19409431Y4447544D01*
X-19544000Y4262326D01*
X-19647940Y4058330D01*
X-19718688Y3840592D01*
X-19754500Y3614471D01*
X-23757212Y3614471D01*
X-23599707Y3771976D01*
X-23451398Y3965257D01*
X-23329585Y4176243D01*
X-23236354Y4401323D01*
X-23173299Y4636647D01*
X-23144929Y4852141D01*
X-23141500Y4878185D01*
X-23141500Y5121816D01*
X-23150062Y5186846D01*
X-23173299Y5363353D01*
X-23236354Y5598677D01*
X-23329585Y5823757D01*
X-23451398Y6034743D01*
X-23599707Y6228024D01*
X-23771976Y6400293D01*
X-23794156Y6417312D01*
X-23965255Y6548601D01*
X-24035586Y6589207D01*
X-24176243Y6670415D01*
X-24176245Y6670416D01*
X-24176247Y6670417D01*
X-24176249Y6670418D01*
X-24281519Y6714022D01*
X-24401323Y6763646D01*
X-24401330Y6763648D01*
X-24636635Y6826698D01*
X-24636640Y6826699D01*
X-24636647Y6826701D01*
X-24733263Y6839421D01*
X-24878184Y6858500D01*
X-24878187Y6858500D01*
X-25121813Y6858500D01*
X-25121816Y6858500D01*
X-25302968Y6834651D01*
X-25363353Y6826701D01*
X-25363357Y6826700D01*
X-25363366Y6826698D01*
X-25598671Y6763648D01*
X-25598675Y6763647D01*
X-25598677Y6763646D01*
X-25598679Y6763645D01*
X-25823752Y6670418D01*
X-25823754Y6670417D01*
X-26034746Y6548601D01*
X-26228021Y6400296D01*
X-26400296Y6228021D01*
X-26548601Y6034746D01*
X-26670417Y5823754D01*
X-26670418Y5823752D01*
X-26763645Y5598679D01*
X-26763648Y5598671D01*
X-26826698Y5363366D01*
X-26826701Y5363352D01*
X-26858500Y5121816D01*
X-29491500Y5121816D01*
X-29491500Y9087241D01*
X-16108500Y9087241D01*
X-16108500Y8912760D01*
X-16081206Y8740429D01*
X-16081205Y8740426D01*
X-16027288Y8574484D01*
X-15948074Y8419019D01*
X-15845517Y8277861D01*
X-15722139Y8154483D01*
X-15580981Y8051926D01*
X-15425516Y7972712D01*
X-15259574Y7918795D01*
X-15087241Y7891500D01*
X-15087240Y7891500D01*
X-14912760Y7891500D01*
X-14912759Y7891500D01*
X-14740426Y7918795D01*
X-14574484Y7972712D01*
X-14419019Y8051926D01*
X-14277861Y8154483D01*
X-14154483Y8277861D01*
X-14051926Y8419019D01*
X-13972712Y8574484D01*
X-13918795Y8740426D01*
X-13891500Y8912759D01*
X-13891500Y9087241D01*
X-13918795Y9259574D01*
X-13972712Y9425516D01*
X-14051926Y9580981D01*
X-14154483Y9722139D01*
X-14277861Y9845517D01*
X-14419016Y9948072D01*
X-14419017Y9948073D01*
X-14419019Y9948074D01*
X-14574484Y10027288D01*
X-14574486Y10027289D01*
X-14574489Y10027290D01*
X-14740429Y10081206D01*
X-14872811Y10102173D01*
X-14912759Y10108500D01*
X-15087241Y10108500D01*
X-15119672Y10103364D01*
X-15259572Y10081206D01*
X-15425512Y10027290D01*
X-15425519Y10027287D01*
X-15580979Y9948075D01*
X-15580985Y9948072D01*
X-15722140Y9845517D01*
X-15845517Y9722140D01*
X-15948072Y9580985D01*
X-15948075Y9580979D01*
X-16027287Y9425519D01*
X-16027290Y9425512D01*
X-16081206Y9259572D01*
X-16108500Y9087241D01*
X-29491500Y9087241D01*
X-29491500Y30121813D01*
X-26858500Y30121813D01*
X-26858500Y29878187D01*
X-26826701Y29636647D01*
X-26763646Y29401323D01*
X-26731661Y29324104D01*
X-26670418Y29176249D01*
X-26670417Y29176247D01*
X-26548601Y28965255D01*
X-26462586Y28853158D01*
X-26400293Y28771976D01*
X-26228024Y28599707D01*
X-26034743Y28451398D01*
X-25823757Y28329585D01*
X-25598677Y28236354D01*
X-25363353Y28173299D01*
X-25184305Y28149728D01*
X-25121816Y28141500D01*
X-25121813Y28141500D01*
X-24878184Y28141500D01*
X-24820657Y28149074D01*
X-24636647Y28173299D01*
X-24401323Y28236354D01*
X-24176243Y28329585D01*
X-23965257Y28451398D01*
X-23771976Y28599707D01*
X-23599707Y28771976D01*
X-23451398Y28965257D01*
X-23329585Y29176243D01*
X-23236354Y29401323D01*
X-23173299Y29636647D01*
X-23141500Y29878187D01*
X-23141500Y30121813D01*
X-23173299Y30363353D01*
X-23236354Y30598677D01*
X-23329585Y30823757D01*
X-23451398Y31034743D01*
X-23457306Y31042442D01*
X-23599705Y31228021D01*
X-23599707Y31228024D01*
X-23771976Y31400293D01*
X-23830937Y31445535D01*
X-23965255Y31548601D01*
X-24101438Y31627226D01*
X-24176243Y31670415D01*
X-24176245Y31670416D01*
X-24176247Y31670417D01*
X-24176249Y31670418D01*
X-24281519Y31714022D01*
X-24401323Y31763646D01*
X-24401330Y31763648D01*
X-24636635Y31826698D01*
X-24636640Y31826699D01*
X-24636647Y31826701D01*
X-24733263Y31839421D01*
X-24878184Y31858500D01*
X-24878187Y31858500D01*
X-25121813Y31858500D01*
X-25121816Y31858500D01*
X-25302968Y31834651D01*
X-25363353Y31826701D01*
X-25363357Y31826700D01*
X-25363366Y31826698D01*
X-25598671Y31763648D01*
X-25598675Y31763647D01*
X-25598677Y31763646D01*
X-25598679Y31763645D01*
X-25823752Y31670418D01*
X-25823754Y31670417D01*
X-26034746Y31548601D01*
X-26228021Y31400296D01*
X-26400296Y31228021D01*
X-26548601Y31034746D01*
X-26670417Y30823754D01*
X-26670418Y30823752D01*
X-26763645Y30598679D01*
X-26763648Y30598671D01*
X-26826698Y30363366D01*
X-26826701Y30363352D01*
X-26851758Y30173021D01*
X-26858500Y30121813D01*
X-29491500Y30121813D01*
X-29491500Y31997339D01*
X-29491340Y32002646D01*
X-29473655Y32295015D01*
X-29472375Y32305552D01*
X-29420058Y32591039D01*
X-29417527Y32601312D01*
X-29331173Y32878428D01*
X-29327410Y32888349D01*
X-29208290Y33153025D01*
X-29203372Y33162395D01*
X-29053210Y33410792D01*
X-29047194Y33419507D01*
X-28868189Y33647992D01*
X-28861166Y33655920D01*
X-28655920Y33861166D01*
X-28647992Y33868189D01*
X-28419507Y34047194D01*
X-28410792Y34053210D01*
X-28162395Y34203372D01*
X-28153025Y34208290D01*
X-27888346Y34327412D01*
X-27878428Y34331173D01*
X-27601312Y34417527D01*
X-27591039Y34420058D01*
X-27305547Y34472376D01*
X-27295020Y34473655D01*
X-27002645Y34491340D01*
X-26997338Y34491500D01*
X-26933055Y34491500D01*
X-12549786Y34491500D01*
X-12493285Y34470935D01*
G37*
%TD.AperFunction*%
%TA.AperFunction,Conductor*%
G36*
X-995787Y31463387D02*
G01*
X-987976Y31464764D01*
X-968201Y31453347D01*
X-946739Y31445535D01*
X-942773Y31438666D01*
X-935904Y31434700D01*
X-928095Y31413243D01*
X-916675Y31393464D01*
X-918053Y31385652D01*
X-915340Y31378199D01*
X-923151Y31356741D01*
X-927116Y31334250D01*
X-933752Y31327615D01*
X-935905Y31321698D01*
X-959291Y31302076D01*
X-976839Y31291946D01*
X-976841Y31291945D01*
X-1159302Y31151937D01*
X-1321937Y30989302D01*
X-1461943Y30806843D01*
X-1576942Y30607658D01*
X-1576943Y30607656D01*
X-1664953Y30395178D01*
X-1664956Y30395171D01*
X-1724477Y30173033D01*
X-1724480Y30173021D01*
X-1754500Y29944998D01*
X-1754500Y29715003D01*
X-1724480Y29486980D01*
X-1724477Y29486968D01*
X-1701529Y29401323D01*
X-1664954Y29264824D01*
X-1618107Y29151724D01*
X-1576943Y29052345D01*
X-1576942Y29052343D01*
X-1576940Y29052339D01*
X-1534906Y28979534D01*
X-1461943Y28853158D01*
X-1338003Y28691636D01*
X-1321934Y28670695D01*
X-1159305Y28508066D01*
X-976840Y28368056D01*
X-777661Y28253060D01*
X-729253Y28233009D01*
X-684923Y28192388D01*
X-677075Y28132775D01*
X-709381Y28082064D01*
X-762891Y28063900D01*
X-3937109Y28063900D01*
X-3993610Y28084465D01*
X-4023674Y28136536D01*
X-4013233Y28195750D01*
X-3970748Y28233009D01*
X-3922339Y28253060D01*
X-3723160Y28368056D01*
X-3540695Y28508066D01*
X-3378066Y28670695D01*
X-3238056Y28853160D01*
X-3123060Y29052339D01*
X-3035046Y29264824D01*
X-2975520Y29486980D01*
X-2945500Y29715004D01*
X-2945500Y29944996D01*
X-2945729Y29946733D01*
X-2952486Y29998053D01*
X-2975520Y30173020D01*
X-3035046Y30395176D01*
X-3123060Y30607661D01*
X-3238056Y30806840D01*
X-3251035Y30823754D01*
X-3378064Y30989302D01*
X-3378066Y30989305D01*
X-3540695Y31151934D01*
X-3552525Y31161011D01*
X-3723160Y31291945D01*
X-3723162Y31291946D01*
X-3740709Y31302076D01*
X-3779359Y31348136D01*
X-3779359Y31408263D01*
X-3740711Y31454323D01*
X-3696760Y31466100D01*
X-1003240Y31466100D01*
X-995787Y31463387D01*
G37*
%TD.AperFunction*%
%TA.AperFunction,Conductor*%
G36*
X3753261Y31445535D02*
G01*
X3783325Y31393464D01*
X3772884Y31334250D01*
X3740709Y31302076D01*
X3723161Y31291946D01*
X3723159Y31291945D01*
X3540698Y31151937D01*
X3378063Y30989302D01*
X3238057Y30806843D01*
X3123058Y30607658D01*
X3123057Y30607656D01*
X3035047Y30395178D01*
X3035044Y30395171D01*
X2975523Y30173033D01*
X2975520Y30173021D01*
X2945500Y29944998D01*
X2945500Y29715003D01*
X2975520Y29486980D01*
X2975523Y29486968D01*
X2998471Y29401323D01*
X3035046Y29264824D01*
X3104430Y29097315D01*
X3113538Y29075327D01*
X3116161Y29015257D01*
X3094484Y28979534D01*
X2204597Y28089645D01*
X2150103Y28064234D01*
X2142442Y28063900D01*
X762891Y28063900D01*
X706390Y28084465D01*
X676326Y28136536D01*
X686767Y28195750D01*
X729252Y28233009D01*
X777661Y28253060D01*
X976840Y28368056D01*
X1159305Y28508066D01*
X1321934Y28670695D01*
X1461944Y28853160D01*
X1576940Y29052339D01*
X1664954Y29264824D01*
X1724480Y29486980D01*
X1754500Y29715004D01*
X1754500Y29944996D01*
X1754271Y29946733D01*
X1747514Y29998053D01*
X1724480Y30173020D01*
X1664954Y30395176D01*
X1576940Y30607661D01*
X1461944Y30806840D01*
X1448965Y30823754D01*
X1321936Y30989302D01*
X1321934Y30989305D01*
X1159305Y31151934D01*
X1147475Y31161011D01*
X976840Y31291945D01*
X976838Y31291946D01*
X959291Y31302076D01*
X920641Y31348136D01*
X920641Y31408263D01*
X959289Y31454323D01*
X1003240Y31466100D01*
X3696760Y31466100D01*
X3753261Y31445535D01*
G37*
%TD.AperFunction*%
%TD*%
M02*
